<?xml version="1.0" encoding="UTF-8" standalone="no"?>
<svg xmlns="http://www.w3.org/2000/svg" xmlns:inkscape="http://www.inkscape.org/namespaces/inkscape" version="1.1" id="svg2" width="112" height="112" viewBox="0 0 112 112">
   <g inkscape:groupmode="layer" id="l0" inkscape:label="All" transform="translate(0, -16)">
      <g inkscape:groupmode="layer" id="l1" inkscape:label="Outline" class="skin coloured">
         <path id="p0" d="m92.51,91.66 c0,0 5.94,1.29 5.97,-2.42 0,0 8.02,0.19 7.52,-2.97 0,0 -0.7,-2.85 -3.5,-2.4 0,0 2.4,0 2,-3.67 0,0 7.9,-4.25 4.9,-5.55 0,0 5,-6.76 0.7,-9.17 0,0 0.9,-5.06 -2.9,-4.79 -0.2,-0.45 -2.6,-9.13 -11.29,-8.15 0,0 -0.85,-7.52 -4.3,-8.64 0,0 -8.19,-4.38 -17.85,-3.89 0,0 -9.67,-1.03 -17.28,4.7 0,0 -3.13,-8.19 -16.92,-7.03 0,0 -17.45,0 -18.97,12.8 l-1.48,7.97 c0,0 -26.216,16.83 -11.474,45.25 1.63,0.1 37.214,15 73.194,0 0,0 -0.49,-1 4.61,-3.94 0,0 7.38,-6.71 7.07,-8.1" />
      </g>
      <g inkscape:groupmode="layer" id="l2" inkscape:label="Features" class="line">
         <path id="p1" d="m56.48,44.71 c0,0 6.98,5.68 6.45,10.25 C61.94,54.78 35,50.66 29.36,55.5" />
         <path id="p2" d="m19.11,58.45 c0,0 -0.67,5.28 -2.28,6.18" />
         <path id="p3" d="m40.28,79.31 c0,0 24.08,3.67 28.82,-4.21" />
         <path id="p4" d="m58.27,83.51 c0.45,0 4.57,-0.98 8.86,-3.22" />
         <path id="p5" d="m104.5,80.2 c-1.2,0.36 -6.67,2.33 -13.02,1.88" />
         <path id="p6" d="m89.87,80.65 c0.18,0.54 2.42,1.34 3.22,3.13" />
         <path id="p7" d="m62.93,54.96 c0,0 8.14,-2.51 15.93,-1.79" />
         <path id="p8" d="m78.86,53.17 c0,0 7.52,0.36 8.86,-0.45 0.45,0.45 2.86,-0.99 8.19,-0.18" />
         <path id="p9" d="m62.93,54.96 c0,0 5.1,4.12 7.34,8.77" />
         <path id="p10" d="m71.34,67.09 c0,0 19,-7.74 35.86,-6.4" />
      </g>
      <g inkscape:groupmode="layer" id="l8" inkscape:label="Neck" class="skin coloured">
         <path id="p2116-2" d="m7.26,103.6 c6.62,13 36.88,11.9 36.88,11.9 28.64,2.3 34.04,-11.9 36.34,-11.9 -36.01,15 -71.59,0.1 -73,0" />
      </g>
      <g inkscape:groupmode="layer" id="variant-pepothink" inkscape:label="Think">
         <g inkscape:groupmode="layer" id="l7" inkscape:label="Shirt" class="shirt coloured">
            <!-- <path id="p891-3" style="fill:#0345fd;stroke-width:0.7918px" -->
            <path id="p891-3" d="m -2.128,128.1 c 0,-0.4 -0.948,-17.7 9.384,-24.5 6.624,13 36.884,11.9 36.884,11.9 28.64,2.3 34.01,-11.9 36.34,-11.9 16.56,6.7 15.04,23.9 15.04,24.3" />
         </g>
         <g inkscape:groupmode="layer" id="l3" inkscape:label="Lips Think" class="lips coloured">
            <path id="p15" d="m 102.5,83.87 c 0,0 -1.1,1.08 -16.6,0.31 -0.3,0.19 -9.7,-0.32 -13.9,1.9 -0.7,0.25 -5,2.02 -13.11,1.52 -0.88,0.19 -4.93,0.38 -6.26,-0.7 0,0 -12.03,-1.52 -11.46,4.43 0,0 -2.15,6.52 7.09,5.95 0,0 10.48,0.64 22.31,-4.24 0,0 10.97,-4.66 21.94,-1.38 6.1,1.34 6,-2.42 6,-2.42 8.19,0.18 7.49,-2.97 7.49,-2.97 -0.8,-3.11 -3.5,-2.4 -3.5,-2.4" />
            <path id="p12" class="line" d="m 52.2,92.3 c 1.2,-0.1 4.8,2.8 17.5,-3.42 0.7,0 7.7,-3.2 17.3,-0.6 0.76,0.3 6,1.26 11.5,0.95" />
         </g>
         <g inkscape:groupmode="layer" id="l5" inkscape:label="Eyes Think">
            <g inkscape:groupmode="layer" id="l5-1" inkscape:label="R Outline" class="sclera coloured">
               <path id="p2219-2" d="m 67.94,73.89 c 3.09,-1.79 3.3,-6.53 3.4,-6.8 m 0,0 c 0,0 4.42,2.79 12.59,-0.76 0,0 22.37,-5.44 26.17,-0.85 0,0 4.6,1.35 -0.7,9.17 0,0 -9.59,4.97 -24.84,4.02 -0.32,0.13 -8.24,0.82 -16.62,-4.78" />
            </g>
            <g inkscape:groupmode="layer" id="l5-2" inkscape:label="R Iris" class="iris coloured">
               <path id="p1082" d="m 85.91,65.92 c 0,0.53 -2.4,11.33 9.6,8.55 0.53,-0.27 11.69,-0.58 7.19,-10.78" />
            </g>
            <g inkscape:groupmode="layer" id="l5-3" inkscape:label="R Pupil" class="pupil coloured">
               <ellipse id="p1084" cx="94.1" cy="66.82" rx="1.313" ry="1.013" />
               <ellipse id="p1084-5" cx="113.5" cy="-6.497" rx="1.515" ry="1.166" transform="matrix(0.7438,0.6684,-0.7223,0.6916,0,0)" />
               <ellipse id="p1084-5-6" cx="-46.44" cy="-116.7" rx="1.515" ry="1.166" transform="matrix(-0.7952,0.6063,-0.545,-0.8384,0,0)" />
            </g>
            <g inkscape:groupmode="layer" id="l5-4" inkscape:label="L Outline" class="sclera coloured">
               <path id="p2273" d="m 71.34,67.09 c -0.1,0.27 -0.31,5.01 -3.4,6.8 -0.63,0 -1.43,2.24 -10.47,1.79 -0.32,0 -7.84,0.99 -13.83,-2.55 0,0 -2.69,-1.48 -3.72,-1.39 -0.22,0 -3.8,-1.56 -5.06,-3.31 -0.85,-0.63 -5.19,-5.24 -6.93,-4.83 0,0 8.14,-1.26 10.38,-2.64 0.63,0.18 2.33,-1.66 7.83,-1.21 0,0 24.44,-1.34 25.2,7.34" />
            </g>
            <g inkscape:groupmode="layer" id="l5-5" inkscape:label="L Iris" class="iris coloured">
               <path id="p1126" d="m 67.5,62.37 c 0,0 1.31,8.41 -6.19,8.46 0,0 -17.83,0.67 -10.17,-10.88 0,0 8.17,-0.65 16.36,2.42" />
            </g>
            <g inkscape:groupmode="layer" id="l5-6" inkscape:label="L Pupil" class="pupil coloured">
               <ellipse id="p1130" cx="78.9" cy="34.41" rx="1.701" ry="1.147" transform="rotate(23.24)" />
               <ellipse id="p1130-2" cx="-8.467" cy="-92.37" rx="1.701" ry="1.147" transform="rotate(142)" />
               <ellipse id="p1130-3" cx="82.4" cy="15.1" rx="1.33" ry="0.9" transform="matrix(0.75,0.66,-0.64,0.77,0,0)" />
            </g>
         </g>
         <g inkscape:groupmode="layer" id="l10" inkscape:label="Arm" class="shirt coloured">
            <path id="p90" d="m 44,102 c 0,0 12,11 9.6,13.7 0,0 -26,27 -44,13 0,0 -0.7,-18 -0.7,-17.8 0,0 8.4,9 13.7,5.4 1,-0.3 18.4,-9 21,-14" />
         </g>
         <g inkscape:groupmode="layer" id="l11" inkscape:label="Hand" class="skin coloured">
            <path id="p91" d="m 45.11,103.3 c 0.54,-0.3 4.03,-0.9 4.39,-3.41 0,0 1.88,-5.9 4.65,-6.08 0,0 2.42,0.27 -0.18,4.2 0,0 -2.05,3.79 3.41,0.27 0,0 8.95,-5.46 9.84,-3.31 -0.18,0.81 2.06,2.24 -7.87,7.43 0.17,0.1 5.46,-2.77 5.72,-0.1 0,0 1.53,0.8 -2.23,2.4 0,0 8.95,-2.1 2.59,3.5 0.1,0.6 5.91,-1.3 3.76,1.2 -0.45,0.2 -8.95,5.7 -11.37,4.5 0,0 -2.32,-1.6 -4.38,-1.3 0,-0.2 -8.33,-9.3 -8.33,-9.3" />
         </g>
      </g>
      <g inkscape:groupmode="layer" id="variant-feelsdankman" inkscape:label="Dank">
         <g inkscape:groupmode="layer" id="g944" inkscape:label="Shirt Dank" class="dank coloured">
            <path id="path942" d="m -2.128,128.1 c 0,-0.4 -0.948,-17.7 9.384,-24.5 6.624,13 36.884,11.9 36.884,11.9 28.64,2.3 34.01,-11.9 36.34,-11.9 16.56,6.7 15.04,23.9 15.04,24.3" />
         </g>
         <g inkscape:groupmode="layer" id="l6" inkscape:label="Eyes Dank">
            <g inkscape:groupmode="layer" id="g2378" inkscape:label="Sclera" class="sclera coloured">
               <path id="p2376" d="m 67.94,73.89 c 3.09,-1.79 3.3,-6.53 3.4,-6.8 0,0 4.42,2.79 12.59,-0.76 0,0 22.37,-5.44 26.17,-0.85 0,0 4.6,1.35 -0.7,9.17 0,0 -9.59,4.97 -24.84,4.02 -0.32,0.13 -8.24,0.82 -16.62,-4.78" />
               <path id="p1471" d="m 71.34,67.09 c -0.1,0.27 -0.31,5.01 -3.4,6.8 -0.63,0 -1.43,2.24 -10.47,1.79 -0.32,0 -7.84,0.99 -13.83,-2.55 0,0 -2.69,-1.48 -3.72,-1.39 -0.22,0 -3.8,-1.56 -5.06,-3.31 -0.85,-0.63 -5.19,-5.24 -6.93,-4.83 0,0 8.14,-1.26 10.38,-2.64 0.63,0.18 2.33,-1.66 7.83,-1.21 0,0 24.44,-1.34 25.2,7.34" />
            </g>
            <g inkscape:groupmode="layer" id="g1449" inkscape:label="Iris" class="iris coloured">
               <path id="path43" d="m 88,78.5 c 0,0 3.25,-12 9.83,-11.2 0,0 6.97,-1.14 6.77,9.3 -1.2,1 -16.62,1.9 -16.62,1.9" />
               <path id="path45" d="m 46.1,74.15 c 0,0 -2.02,-8.3 5.44,-9 0,0 17.7,-2.2 11.1,10 0,0 -8.1,1.35 -16.5,-1.01" />
            </g>
            <g inkscape:groupmode="layer" id="g1457" inkscape:label="R Pupil" class="pupil coloured">
               <ellipse id="p1499" cx="102" cy="-92.66" rx="1.53" ry="1.57" transform="matrix(0.1127,0.9936,-0.9592,0.2829,0,0)" />
               <ellipse id="p1501" cx="50.77" cy="107.5" rx="0.6488" ry="1.171" transform="rotate(-28.34)" />
            </g>
            <g inkscape:groupmode="layer" id="g1485" inkscape:label="L Pupil" class="pupil coloured">
               <ellipse id="p1491" cx="79.74" cy="33.65" rx="1.915" ry="1.456" transform="rotate(30)" />
               <ellipse id="p1493" cx="6" cy="90.3" rx="1" ry="1.155" transform="rotate(-31.5)" />
               <ellipse id="p1495" cx="60" cy="72.86" rx="1.298" ry="1.408" />
            </g>
         </g>
         <g inkscape:groupmode="layer" id="l4" inkscape:label="Lips Dank" class="lips coloured">
            <path id="p16" d="m 102.5,83.87 c 0,0 -1.1,1.1 -16.64,0.31 -0.3,0.19 -9.7,-0.32 -13.9,1.9 -0.7,0.25 -5,2.02 -13.1,1.52 -0.9,0.19 -4.9,0.38 -6.3,-0.7 0,0 -12,-1.52 -11.4,4.43 0,0 -2.2,6.52 7.1,5.95 0.67,0.1 25.03,0.7 31.3,-2.85 0.89,0 9.25,-2.7 12.95,-2.77 m 0,0 c 6.07,1.34 5.97,-2.42 5.97,-2.42 8.22,0.18 7.52,-2.97 7.52,-2.97 -0.8,-3.11 -3.5,-2.4 -3.5,-2.4" />
            <path id="p17" style="fill:black" d="M 95.83,89.24 C 94.81,89.37 83.29,90.89 74.56,93.8 73.67,93.61 61.08,96.02 56.39,94.31 56.2,94 49.75,92.79 47.22,93.23 m 14.24,-1.14 c 0.69,0.13 8.42,-0.12 15.19,-2.28 1.45,-0.1 14.75,-1.39 19.18,-0.57 m -48.61,3.99 c 0,0 3.29,-1.71 14.24,-1.14" />
            <path id="p18" class="line" d="m 95.83,89.24 c 0,0 1.92,0 2.65,0" />
         </g>
         <g inkscape:groupmode="layer" id="l9" inkscape:label="Hat" class="dank coloured">
            <path id="p1534" d="m 75.73,13.07 c 1,0.18 3.4,4.38 3.4,4.38 0.18,1.97 4.56,6.9 4.56,6.9 1.52,1.16 4.39,7.07 4.39,7.07 0.71,2.41 1.61,4.03 2.33,5.55 6.08,7.61 7.6,15.13 7.6,15.13 -1.97,-0.36 -62.65,6.26 -78.59,2.77 -0.18,-0.98 0.63,-6.62 2.33,-10.11 0,0 7.88,-16.12 8.33,-19.34 0,0 1.52,-5.91 6.17,-10.11 0,0 10.65,-12.177 10.92,-14.3254 0,0 -0.62,-0.4475 3.05,-8.1456 0,0 4.29,-7.069 4.29,-8.149 0,0 1.24,-4.32 2.83,-5.58 1.02,1.21 1.78,3.48 1.78,3.48 1.2,3.17 2.02,3.87 2.27,4.31 1.65,2.09 2.73,6.138 3.42,7.087 0.85,4.265 2.13,4.92 3.15,7.055 1.03,0.839 6.12,8.136 6.22,8.452 0.82,2.216 1.55,3.576 1.55,3.576" />
         </g>
      </g>
   </g>
</svg>
