<?xml version="1.0" encoding="UTF-8" standalone="no"?>
<svg xmlns="http://www.w3.org/2000/svg" xmlns:inkscape="http://www.inkscape.org/namespaces/inkscape" version="1.1" id="svg2" width="112" height="112" viewBox="0 0 112 112">
   <defs id="defs1626" />
   <g inkscape:groupmode="layer" id="l0" inkscape:label="All" style="fill:none;stroke:black">
      <g inkscape:groupmode="layer" id="core-hair-standard" inkscape:label="Hair" class="hair coloured">
         <path id="p1" d="M -3.122,59.16 C 80.48,2.23 80.55,40.95 80.55,40.95 l -0.77,-3.54 c 0,0 6.18,-26.68 32.32,9.02 0,0 11.1,13.23 -0.4,33.54 -0.9,1.29 -11.2,13.97 -8,34.23 H -3.121 V 59.23 Z" />
      </g>
      <g inkscape:groupmode="layer" id="core-face" inkscape:label="Face" class="skin coloured">
         <path id="p4" d="M 90.32,90 C 85.67,96.13 69.93,99.55 58.02,102.3 46.12,105 33.11,103 23.66,102.1 14.22,101.2 3.519,86.19 3.179,85.43 c 0,0 -10.2,-11.65 8.151,-22.87 0,0 40.9,-21.77 45.67,-25.34 0,0 16.75,-6.97 23.55,3.74 0,0 6.46,-16.74 19.45,-2.21 0,0 17.2,14.71 7.9,21.26 0,0 5.2,5.6 -2.1,13.57" />
      </g>
      <g inkscape:groupmode="layer" id="core-features" inkscape:label="features" class="thin line">
         <path id="p5" style="fill:black" d="m 94,70.55 c 1.64,3.23 -6.28,-5.89 -9.69,-9.18 l 9.18,6.71 z" />
         <path id="p6" d="m 8.789,84.07 c 0,0 -0.68,-11.73 6.021,-13.52" />
         <path id="p7" d="m 47.24,63.74 c 0,0 5.27,13.94 30.95,2.97 0,0 -24.15,10.37 -23.3,-9.86" />
         <path id="p8" d="m 90.53,62.04 c 0,0 13.17,0.29 19.57,-4.63" />
         <path id="p9" d="m 107.9,60 c -1.9,1.15 -8.09,6.2 -14.4,8.07" />
         <path id="p10" d="M 84.31,61.36 83.57,60.81" />
      </g>
      <g inkscape:groupmode="layer" id="variant-sadge" inkscape:label="Sadge">
         <g inkscape:groupmode="layer" id="core-shirt" inkscape:label="Shirt" class="shirt coloured">
            <path id="p2" d="m 80.65,105.2 c 0,0 5.53,2.3 7.15,8 H -0.5907 V 93.87 L 1.579,92.85 c 0,0 6,8.85 31.791,11.75 0,0 23.81,3.3 34.23,-0.1 0,0 5,-1.2 5.2,-3.2 0,0 0,-2.64 3.74,1.9 0,0 1,1 4.24,2.1" />
         </g>
         <g inkscape:groupmode="layer" id="core-neck" inkscape:label="neck" class="skin coloured">
            <path id="p3" d="m 3.199,85.43 -1.62,7.42 c 0,0 5.96,8.75 31.751,11.65 0,0 23.85,3.4 34.27,0 0,0 5,-1.2 5.2,-3.2 l -2.04,-1.96" />
         </g>
         <g inkscape:groupmode="layer" id="l7" inkscape:label="lips" class="lips coloured">
            <path id="p11" d="m 26.39,78.46 c 0,0 7.48,-0.1 10,1.02 2.55,1.1 9.69,1.95 11.82,1.7 2.12,-0.25 9.1,3.23 16.49,3.23 7.39,0 7.82,0.59 16.92,1.02 9.1,0.42 16.07,-1.7 22.58,-3.91 6.6,-2.21 5.9,-12.75 1.2,-8.33 -4.7,4.42 -18.93,4.5 -21.91,4.59 -2.97,0.1 -9.35,0.76 -19.73,-0.42 -10.33,-1.2 -14.07,-2.22 -17.9,-3.33 -3.82,-1.1 -10.12,-2.72 -19.56,-2.38 -9.44,0.34 -12.5,7.31 -11.56,11.82 0.93,4.5 8.5,3.23 8.5,3.23 0,0 14.28,-0.76 20.83,1.61 6.54,2.38 26.45,3.31 30.7,3.23 4.25,-0.1 15.3,2.8 21.17,0.59 5.86,-2.21 12.66,-6.46 3.68,-9.1" />
         </g>
         <g inkscape:groupmode="layer" id="l8" inkscape:label="Eyes" class="line">
            <path id="p12" d="m 56.92,54.79 c 0,0 -0.3,-1.92 2.52,-4.93 2.82,-3 6.13,-6.13 9.08,-6.61 2.94,-0.48 9.68,-1.14 12.02,0.66 2.34,1.8 8.72,12.56 1.92,18.4 -6.79,5.83 -17.2,4.02 -20.26,1.74 -3.06,-2.28 -5.59,-4.51 -5.29,-9.26 z" />
            <path id="p13" d="m 110.3,52.34 c 0,0 -0.8,4.33 -10.1,6.59 -9.33,2.25 -12.9,-0.55 -14.6,-2.04" />
            <path id="p14" d="m 84.39,50.05 c 0,0 3.86,-5.35 12.2,-6.03 0,0 6.11,-1.31 9.11,0.68" />
            <path id="p15" d="m 72.65,51.41 c 0,0 -7.1,6.71 -15.52,5.78 m 27.25,-6.37 c 0,0 -9.65,-0.85 -11.73,0.59" />
            <path id="p16" d="m 82.66,46.74 c 0,0 6.83,-10.89 17.34,-7.99" />
            <path id="p17" class="thin" d="m 81.75,44.02 c 0,0 7.3,-10.54 14.7,-8.76" />
            <path id="p18" class="thin" d="m 55.99,47.92 c 0,0 2.72,-1.44 5.01,-4.67 2.29,-3.23 5.86,-4.08 8.76,-3.91 2.89,0.17 7.99,1.02 10.97,3.24" />
            <g inkscape:groupmode="layer" id="l9" inkscape:label="Sclera" class="sclera coloured" />
            <g inkscape:groupmode="layer" id="l10" inkscape:label="Iris" class="iris coloured">
               <path id="p19" d="m 66.19,65.27 c 0,0 8.76,-22.02 13.18,-1.02 q -6.21,3.41 -13.16,1.02" />
               <path id="p20" d="m 93.66,59.66 c 0,0 -2.04,-11.72 4.93,-11.96 6.91,-0.24 6.11,9.74 6.11,9.74 q -5.27,2.17 -11.04,2.22" />
            </g>
            <g inkscape:groupmode="layer" id="l11" inkscape:label="Pupil" class="pupil coloured">
               <ellipse id="p21" cx="100.7" cy="55.65" rx="1.24" ry="2.03" />
               <ellipse id="p22" cx="95.73" cy="12.35" rx="1.64" ry="2.33" transform="rotate(33.3)" />
            </g>
         </g>
      </g>
      <g inkscape:groupmode="layer" id="variant-madge" inkscape:label="Madge">
         <g inkscape:groupmode="layer" id="l101" inkscape:label="Shirt" class="shirt coloured">
            <path id="path1188" d="m 80.65,105.2 c 0,0 5.53,2.3 7.15,8 H -0.5907 V 93.87 L 1.579,92.85 c 0,0 6,8.85 31.791,11.75 0,0 23.81,3.3 34.23,-0.1 0,0 5,-1.2 5.2,-3.2 0,0 0,-2.64 3.74,1.9 0,0 1,1 4.24,2.1" />
         </g>
         <g inkscape:groupmode="layer" id="l100" inkscape:label="neck" class="skin coloured">
            <path id="path1191" d="m 3.199,85.43 -1.62,7.42 c 0,0 5.96,8.75 31.751,11.65 0,0 23.85,3.4 34.27,0 0,0 5,-1.2 5.2,-3.2 l -2.04,-1.96" />
         </g>
         <g inkscape:groupmode="layer" id="l13" inkscape:label="Lips" class="lips coloured">
            <path id="p23" d="m 26.39,78.46 c 0,0 7.48,-0.1 10,1.02 2.55,1.1 9.69,1.95 11.82,1.7 2.12,-0.25 9.1,3.23 16.49,3.23 7.39,0 7.82,0.59 16.92,1.02 9.1,0.42 16.07,-1.7 22.58,-3.91 6.6,-2.21 5.9,-12.75 1.2,-8.33 -4.7,4.42 -18.93,4.5 -21.91,4.59 -2.97,0.1 -9.35,0.76 -19.73,-0.42 -10.33,-1.2 -14.07,-2.22 -17.9,-3.33 -3.82,-1.1 -10.12,-2.72 -19.56,-2.38 -9.44,0.34 -12.5,7.31 -11.56,11.82 0.93,4.5 8.5,3.23 8.5,3.23 0,0 14.28,-0.76 20.83,1.61 6.54,2.38 26.45,3.31 30.7,3.23 4.25,-0.1 15.3,2.8 21.17,0.59 5.86,-2.21 12.66,-6.46 3.68,-9.1" />
         </g>
         <g inkscape:groupmode="layer" id="l14" inkscape:label="Eyes" class="line">
            <path id="p24" class="skin coloured" d="m 96.76,43.13 c 0,0 10.84,-5.87 8.94,1.56" />
            <path id="p25" d="m 81.45,44.57 c 0,0 6,-10.56 16.37,-8" />
            <path id="p26" d="m 83.39,47.19 c 0,0 4.18,-9.25 12.12,-7.68" />
            <path id="p27" d="m 59.13,49.13 c 0,0 -1.37,-4.19 5.19,-4.94" />
            <path id="p28" d="m 84.01,49.51 c 0,0 3.25,-3.88 6.25,-3.32" />
            <path id="p29" d="m 62.57,44.26 c 0,0 2.25,-7.32 14.94,-2.75 0.5,0.87 7.19,2.93 6.37,9.81" />
            <path id="p30" d="m 78.64,43.69 c 0,0 -5.13,-1.87 -8.13,-1" />
            <g inkscape:groupmode="layer" id="l15" inkscape:label="Sclera" class="sclera coloured">
               <path id="p31" d="m 84.4,54.32 c 0,0 6.61,-3.31 10.61,-6.94 0,0 7.49,-4.69 10.69,-2.69 0,0 3.9,4.39 5,9.07 -16.31,12.31 -26.25,3.62 -26.25,3.62" />
               <path id="p32" d="m 61.26,49.01 c 0,0 -9.31,6.06 -2.19,12.68 0,0 3.69,5.56 12.5,4.5 0,0 12.07,0.94 12.88,-8.81 0,0 -8,-1.87 -11.31,-5.56 0,0 -3.76,-4.44 -14.01,-2.69" />
            </g>
            <g inkscape:groupmode="layer" id="l16" inkscape:label="Iris" class="iris coloured">
               <path id="p33" d="m 90.2,51.57 c 0,0 3.37,9.13 8.7,4 0,0 4.1,-5.69 -2.58,-8.5" />
               <path id="p34" d="m 69.89,49.82 c 0,0 -1.07,11.56 2.43,11.87 0,0 5.25,1.94 8.7,-5.19" />
            </g>
            <g inkscape:groupmode="layer" id="l17" inkscape:label="Pupil" class="pupil coloured">
               <ellipse id="p35" cx="46.46" cy="97.08" rx="1.531" ry="1.844" transform="rotate(-36.26)" />
               <ellipse id="p36" cx="91.75" cy="17.23" rx="1.656" ry="2" transform="rotate(26.25)" />
            </g>
            <path id="p37" d="m 84.45,57.38 c 0,0 1.6,-7.44 -4.13,-8.06" />
         </g>
      </g>
      <g inkscape:groupmode="layer" id="variant-weirdge" inkscape:label="Weirdge">
         <g inkscape:groupmode="layer" id="g1217" inkscape:label="Shirt" class="shirt coloured">
            <path id="path1215" d="m 80.65,105.2 c 0,0 5.53,2.3 7.15,8 H -0.5907 V 93.87 L 1.579,92.85 c 0,0 6,8.85 31.791,11.75 0,0 23.81,3.3 34.23,-0.1 0,0 5,-1.2 5.2,-3.2 0,0 0,-2.64 3.74,1.9 0,0 1,1 4.24,2.1" />
         </g>
         <g inkscape:groupmode="layer" id="g1221" inkscape:label="neck" class="skin coloured">
            <path id="path1219" d="m 3.199,85.43 -1.62,7.42 c 0,0 5.96,8.75 31.751,11.65 0,0 23.85,3.4 34.27,0 0,0 5,-1.2 5.2,-3.2 l -2.04,-1.96" />
         </g>
         <g inkscape:groupmode="layer" id="l19" inkscape:label="Lips" class="thin lips">
            <path id="p38" d="m 26.39,78.46 c 0,0 7.48,-0.1 10,1.02 2.55,1.1 9.69,1.95 11.82,1.7 2.12,-0.25 9.1,3.23 16.49,3.23 7.39,0 7.82,0.59 16.92,1.02 9.1,0.42 16.07,-1.7 22.58,-3.91 6.6,-2.21 5.9,-12.75 1.2,-8.33 -4.7,4.42 -18.93,4.5 -21.91,4.59 -2.97,0.1 -9.35,0.76 -19.73,-0.42 -10.33,-1.2 -14.07,-2.22 -17.9,-3.33 -3.82,-1.1 -10.12,-2.72 -19.56,-2.38 -9.44,0.34 -12.5,7.31 -11.56,11.82 0.93,4.5 8.5,3.23 8.5,3.23 0,0 14.28,-0.76 20.83,1.61 6.54,2.38 26.45,3.31 30.7,3.23 4.25,-0.1 15.3,2.8 21.17,0.59 5.86,-2.21 12.66,-6.46 3.68,-9.1" />
         </g>
         <g inkscape:groupmode="layer" id="l20" inkscape:label="Eyes">
            <g inkscape:groupmode="layer" id="l21" inkscape:label="Sclera" class="sclera coloured">
               <path id="p39" d="m 72.03,39.13 c 0,0 -13.2,-2.4 -15.7,11 -2.6,13 10.7,17 14,16.6 3.3,0 17.5,-2 15.2,-15.3 -2.1,-13.3 -13.5,-12 -13.5,-12.3 z" />
               <path id="p40" d="m 98.15,36.8 c 0,0 9.25,7.45 12.25,15.55 0,0 0.9,3.2 -10.1,6.6 C 91.09,61.8 87.33,58.4 85.69,56.91 86.14,47.9 82.74,44.37 82.74,44.37 c 0,0 9.37,-12.61 15.41,-7.57" />
            </g>
            <g inkscape:groupmode="layer" id="l22" inkscape:label="Iris" class="iris coloured">
               <path id="p41" d="m 64.43,48.93 c 0,0 4.5,-12 8.75,-0.6 4.25,11.5 -8.31,11.1 -8.31,11.1 0,0 -5.2,0.9 -0.57,-10.5 z" />
               <path id="p42" d="m 89.43,47.43 c 0,0 -1.2,-11.7 7.3,-3.2 8.47,8.5 0,10.7 -0.37,11 -0.6,0.25 -7.13,2.31 -7,-7.75" />
            </g>
            <g inkscape:groupmode="layer" id="l23" inkscape:label="Pupil" class="pupil coloured">
               <ellipse id="p43" cx="96.43" cy="49.43" rx="1.25" ry="2" />
               <ellipse id="p44" cx="86.62" cy="6.235" rx="1.6" ry="2" transform="rotate(33.3)" />
            </g>
         </g>
      </g>
      <g inkscape:groupmode="layer" id="variant-okayge" inkscape:label="Okayge">
         <g inkscape:groupmode="layer" id="g1238" inkscape:label="Shirt" class="shirt coloured">
            <path id="path1236" d="m 80.65,105.2 c 0,0 5.53,2.3 7.15,8 H -0.5907 V 93.87 L 1.579,92.85 c 0,0 6,8.85 31.791,11.75 0,0 23.81,3.3 34.23,-0.1 0,0 5,-1.2 5.2,-3.2 0,0 0,-2.64 3.74,1.9 0,0 1,1 4.24,2.1" />
         </g>
         <g inkscape:groupmode="layer" id="g1242" inkscape:label="neck" class="skin coloured">
            <path id="path1240" d="m 3.199,85.43 -1.62,7.42 c 0,0 5.96,8.75 31.751,11.65 0,0 23.85,3.4 34.27,0 0,0 5,-1.2 5.2,-3.2 l -2.04,-1.96" />
         </g>
         <g inkscape:groupmode="layer" id="l25" inkscape:label="Lips" class="lips coloured">
            <path id="p45" d="m 39.83,91.93 c 0,0 22.6,6.4 46.8,-1.3 0,0 6.2,-1.56 10.57,-2.06 4.4,-0.5 5.9,-6.64 3.2,-7.01 5.9,-1.6 5.9,-5.57 6,-6.02 0.6,-4.76 -7.1,0.1 -7.1,0.1 0,0 -35.54,10.36 -55.54,-1.01 0,0 -5,-2.75 -6.5,-5 0,0 -2.13,-4.5 -8.88,-4.25 0,0 -10.12,-1.5 -8.5,9.62 0,0 1.46,11.7 20,16.88" />
            <path id="p46" style="fill:none" d="m 100.3,81.61 c 0,0 -62.59,14.43 -73.11,-10.33" />
         </g>
         <g inkscape:groupmode="layer" id="l26" inkscape:label="Eyes">
            <g inkscape:groupmode="layer" id="l27" inkscape:label="Sclera" class="sclera coloured">
               <path id="p47" d="m 72.03,39.13 c 0,0 -13.2,-2.4 -15.7,11 -2.6,13 10.7,17 14,16.6 3.3,0 17.5,-2 15.2,-15.3 -2.1,-13.3 -13.5,-12 -13.5,-12.3 z" />
               <path id="p49" d="m 98.15,36.8 c 0,0 9.25,7.45 12.25,15.55 0,0 0.9,3.2 -10.1,6.6 C 91.09,61.8 87.33,58.4 85.69,56.91 86.14,47.9 82.74,44.37 82.74,44.37 c 0,0 9.37,-12.61 15.41,-7.57" />
            </g>
            <g inkscape:groupmode="layer" id="l28" inkscape:label="Iris" class="iris coloured">
               <path id="p50" d="m 64.43,48.93 c 0,0 4.5,-12 8.75,-0.6 4.25,11.5 -8.31,11.1 -8.31,11.1 0,0 -5.2,0.9 -0.57,-10.5 z" />
               <path id="p51" d="m 89.43,47.43 c 0,0 -1.2,-11.7 7.3,-3.2 8.47,8.5 0,10.7 -0.37,11 -0.6,0.25 -7.13,2.31 -7,-7.75" />
            </g>
            <g inkscape:groupmode="layer" id="l29" inkscape:label="Pupil" class="pupil coloured">
               <ellipse id="p52" cx="96.43" cy="49.43" rx="1.25" ry="2" />
               <ellipse id="p53" cx="86.62" cy="6.235" rx="1.6" ry="2" transform="rotate(33.3)" />
            </g>
         </g>
      </g>
      <g inkscape:groupmode="layer" id="variant-dogege" inkscape:label="Dogege">
         <g inkscape:groupmode="layer" id="l31" inkscape:label="Shirt" class="skin coloured">
            <path id="p54" d="m 70.76,99.34 c 2.88,5.26 6.03,4.26 10.02,5.96 0,0 5.53,2.3 7.15,8 H -0.4607 C -1.046,100.6 -1.498,95.97 3.722,86" />
         </g>
         <g inkscape:groupmode="layer" id="l32" inkscape:label="Right Ear" class="skin coloured">
            <path id="p55" d="m 107.7,71.03 c 0,0 -0.8,28.31 -8.83,29.97 0,0 -7.8,0.9 -11.4,-7.81" />
         </g>
         <g inkscape:groupmode="layer" id="l33" inkscape:label="Lips" class="lips coloured">
            <path id="p56" d="m 39.83,91.93 c 0,0 22.6,6.4 46.8,-1.3 0,0 6.2,-1.56 10.57,-2.06 4.4,-0.5 5.9,-6.64 3.2,-7.01 5.9,-1.6 6.2,-5.3 6.3,-5.75 0.6,-4.76 -7.17,0.1 -7.17,0.1 0,0 -24.28,11.42 -55.77,-1.28 0,0 -5,-2.75 -6.5,-5 0,0 -2.13,-4.5 -8.88,-4.25 0,0 -10.12,-1.5 -8.5,9.62 0,0 1.46,11.7 20,16.88" />
            <path id="p57" style="fill:none" d="m 100.3,81.61 c 0,0 -62.59,14.43 -73.11,-10.33" />
         </g>
         <g inkscape:groupmode="layer" id="l34" inkscape:label="Eyes">
            <g inkscape:groupmode="layer" id="l35" inkscape:label="Sclera" class="sclera coloured">
               <path id="p58" d="m 72.03,39.13 c 0,0 -13.2,-2.4 -15.7,11 -2.6,13 10.7,17 14,16.6 3.3,0 17.5,-2 15.2,-15.3 -2.1,-13.3 -13.5,-12 -13.5,-12.3 z" />
               <path id="p59" d="m 98.15,36.8 c 0,0 9.25,7.45 12.25,15.55 0,0 0.9,3.2 -10.1,6.6 C 91.09,61.8 87.33,58.4 85.69,56.91 86.14,47.9 82.74,44.37 82.74,44.37 c 0,0 9.37,-12.61 15.41,-7.57" />
            </g>
            <g inkscape:groupmode="layer" id="l36" inkscape:label="Iris" class="iris coloured">
               <path id="p60" d="m 64.43,48.93 c 0,0 4.5,-12 8.75,-0.6 4.25,11.5 -8.31,11.1 -8.31,11.1 0,0 -5.2,0.9 -0.57,-10.5 z" />
               <path id="p61" d="m 89.43,47.43 c 0,0 -1.2,-11.7 7.3,-3.2 8.47,8.5 0,10.7 -0.37,11 -0.6,0.25 -7.13,2.31 -7,-7.75" />
            </g>
            <g inkscape:groupmode="layer" id="l37" inkscape:label="Pupil" class="pupil coloured">
               <ellipse id="p62" cx="96.43" cy="49.43" rx="1.25" ry="2" />
               <ellipse id="p63" cx="86.62" cy="6.235" rx="1.6" ry="2" transform="rotate(33.3)" />
            </g>
         </g>
         <g inkscape:groupmode="layer" id="l38" inkscape:label="Nose" class="nose">
            <ellipse id="p64" cx="91.48" cy="73.61" rx="4.798" ry="2.854" />
         </g>
         <g inkscape:groupmode="layer" id="l39" inkscape:label="Left Ear" class="skin coloured">
            <path id="p65" d="m 57,37.21 c 0,0 -11.32,8.03 -20.94,9.03 0,0 -22.25,2.44 -27.871,12.5 0,0 -4.437,6.82 -4.25,15.88 0,0 -0.74,10.81 1.75,17.06 0,0 6.301,16.02 19.181,2.88 0,0 10,-13.5 11.75,-30.07 0,0 -0.88,-9.68 4.44,-13.87" />
         </g>
      </g>
      <g inkscape:groupmode="layer" id="variant-catge" inkscape:label="Catge">
         <g inkscape:groupmode="layer" id="l41" inkscape:label="Shirt" class="skin coloured">
            <path id="p66" d="m 70.76,99.34 c 2.88,5.26 6.03,4.26 10.02,5.96 0,0 5.53,2.3 7.15,8 H -0.4607 C -1.046,100.6 -1.498,95.97 3.722,86" />
         </g>
         <g inkscape:groupmode="layer" id="l42" inkscape:label="Right Ear" class="skin coloured">
            <path id="p67" d="m 93.26,33.51 c 0,0 4.25,-11.81 9.84,-12.81 0,0 2.5,2.25 2.3,23.3" />
         </g>
         <g inkscape:groupmode="layer" id="l43" inkscape:label="Lips" class="lips coloured">
            <path id="p68" d="m 39.83,91.93 c 0,0 22.6,6.4 46.8,-1.3 0,0 6.2,-1.56 10.57,-2.06 4.4,-0.5 5.9,-6.64 3.2,-7.01 5.9,-1.6 6.2,-5.3 6.3,-5.75 0.6,-4.76 -7.17,0.1 -7.17,0.1 0,0 -24.28,11.42 -55.77,-1.28 0,0 -5,-2.75 -6.5,-5 0,0 -2.13,-4.5 -8.88,-4.25 0,0 -10.12,-1.5 -8.5,9.62 0,0 1.46,11.7 20,16.88" />
            <path id="p69" style="fill:none" d="m 100.3,81.61 c 0,0 -62.59,14.43 -73.11,-10.33" />
         </g>
         <g inkscape:groupmode="layer" id="l44" inkscape:label="Eyes">
            <g inkscape:groupmode="layer" id="l45" inkscape:label="Sclera" class="sclera coloured">
               <path id="p70" d="m 72.03,39.13 c 0,0 -13.2,-2.4 -15.7,11 -2.6,13 10.7,17 14,16.6 3.3,0 17.5,-2 15.2,-15.3 -2.1,-13.3 -13.5,-12 -13.5,-12.3 z" />
               <path id="p71" d="m 98.15,36.8 c 0,0 9.25,7.45 12.25,15.55 0,0 0.9,3.2 -10.1,6.6 C 91.09,61.8 87.33,58.4 85.69,56.91 86.14,47.9 82.74,44.37 82.74,44.37 c 0,0 9.37,-12.61 15.41,-7.57" />
            </g>
            <g inkscape:groupmode="layer" id="l46" inkscape:label="Iris" class="iris coloured">
               <path id="p72" d="m 64.43,48.93 c 0,0 4.5,-12 8.75,-0.6 4.25,11.5 -8.31,11.1 -8.31,11.1 0,0 -5.2,0.9 -0.57,-10.5 z" />
               <path id="p73" d="m 89.43,47.43 c 0,0 -1.2,-11.7 7.3,-3.2 8.47,8.5 0,10.7 -0.37,11 -0.6,0.25 -7.13,2.31 -7,-7.75" />
            </g>
            <g inkscape:groupmode="layer" id="l47" inkscape:label="Pupil" class="pupil coloured">
               <ellipse id="p74" cx="96.43" cy="49.43" rx="1.1" ry="1.75" />
               <ellipse id="p75" cx="86.62" cy="6.235" rx="1.4" ry="1.75" transform="rotate(33.3)" />
            </g>
         </g>
         <g inkscape:groupmode="layer" id="l48" inkscape:label="Nose" class="nose">
            <ellipse id="p76" cx="91.48" cy="73.61" rx="4.798" ry="2.854" />
         </g>
         <g inkscape:groupmode="layer" id="l49" inkscape:label="Left Ear" class="skin coloured">
            <path id="p77" d="m 44.4,44.33 c 0,0 -1.95,-13.87 5.03,-23.68 0,0 1.15,-3.36 13.17,14.84" />
            <path id="p78" style="fill:#f05aad" d="m 57.87,34.23 -4.58,1.68 -4.59,1.67 0.84,-4.81 0.83,-4.8 z" />
         </g>
         <g inkscape:groupmode="layer" id="l50" inkscape:label="Tail" class="skin coloured">
            <path id="p79" d="m 9.459,63.38 c 0,0 -1.318,-5 3.861,-13.12 0,0 1.88,-6.38 -0.37,-7.57 0,0 -5.308,-3.25 -7.808,-3.75 0,0 -4.4998,-0.62 -4.5627,-7.25 0,0 -1.0623,-5.62 3.6247,-5.43 0,0 2.125,-1.31 4.875,2.44 0,0 1.441,2.42 7.491,3.86 0,0 5.94,3.31 5.94,8.51 0.13,0.62 0.45,3.62 -2.44,6.44 0,0 -3,5.81 -1.69,10.74" />
         </g>
         <g inkscape:groupmode="layer" id="l51" inkscape:label="Whiskers" class="line">
            <path id="p80" d="m 76.22,71.63 c 0,0 -12.29,-4.95 -32.09,16.08" />
            <path id="p81" d="m 76.57,75.53 c 0,0 -12.55,-1.23 -19.62,13.62" />
            <path id="p82" d="m 78.78,76.13 c 0,0 -12.2,10.96 -13.97,18.57" />
            <path id="p83" d="m 97.16,74.63 c 0,0 6.04,0.97 16.84,17.59" />
            <path id="p84" d="m 97.25,72.93 c 0,0 12.25,3.45 19.55,13.08" />
            <path id="p85" d="m 96.28,69.63 c 0,0 14.72,1.41 26.22,13.61" />
         </g>
      </g>
   </g>
</svg>
