<?xml version="1.0" encoding="UTF-8" standalone="no"?>
<svg xmlns="http://www.w3.org/2000/svg" xmlns:inkscape="http://www.inkscape.org/namespaces/inkscape" version="1.1" id="svg919" width="112" height="112" viewBox="0 0 112 112">
   <g inkscape:groupmode="layer" id="variant-monkas" inkscape:label="All" style="fill:none;stroke:black">
      <g inkscape:groupmode="layer" id="core-hair-standard" inkscape:label="Hair" class="hair coloured">
         <path id="path1128-3" d="M -4.512,29.27 C 12.43,4.338 28.68,3.422 39.53,2.567 c 5.89,-0.459 9.75,6.519 9.75,6.519 0,0 13.69,-12.745 31.61,-3.799 0,0 29.91,13.273 23.21,38.753 0,0 -12.23,53.24 -1.1,69.26 H -4.616 Z" />
         <path id="path1128" d="m 51.58,20.58 c 0,0 0.1,-7.68 -2.3,-11.494" />
      </g>
      <g inkscape:groupmode="layer" id="layer1" inkscape:label="Shirt" class="shirt coloured">
         <path id="path932" d="m 76.62,113.8 c 0,0 -7.23,-10.2 -13.3,-12.3 0,0 -6.66,7.3 -28.97,5.1 C 12.04,104.4 0.8103,98.98 -1.059,96.81 l 0.1463,16.49 z" />
      </g>
      <g inkscape:groupmode="layer" id="layer6" inkscape:label="Outline" class="skin coloured">
         <path id="path932-3" d="m 63.32,101.5 c 0,0 -6.66,7.3 -28.97,5.1 C 12.04,104.4 0.8073,98.98 -1.059,96.81 -22.09,72.38 4.321,40.52 4.321,40.52 6.673,39.07 8.983,33.78 8.983,33.78 10.1,30.82 12.91,26.77 12.91,26.77 c 19.88,-25.85 38.62,-6.2 38.62,-6.2 2.8,-1.82 8,-3.97 8,-3.97 11.21,-6.01 19.42,1.8 19.42,1.8 2.03,1.06 6.67,8.54 6.67,8.54 2.34,4.07 8.77,9 8.77,9 l 3.27,4.31 c 3.14,6.59 -0.32,11.85 -0.32,11.85 -5.47,7.76 -10.19,8.59 -10.19,8.59 0,0 8.05,8.1 8.59,16.56 l -13.1,14.76 c -9.49,6.97 -19.29,9.49 -19.29,9.49" />
      </g>
      <g inkscape:groupmode="layer" id="layer2" inkscape:label="Lips" class="lips coloured">
         <path id="path1165" d="m 91.78,82.02 c 0,0 -4,2.7 -8.23,3.06 0,0 7.97,-1.62 7.69,1.44 0,0 -1.66,5.58 -11.2,5.12 0,0 -27.06,-1.16 -33.53,-2.51 0,0 -4.75,-0.73 -7.28,-1.62 -2.55,-0.99 -12.39,0.99 -14.92,-0.27 0,0 -10.63,-6.03 2.27,-11.52 0,0 5.79,-1.78 20.97,1.99 0,0 24.87,6.92 44.32,-1.05 0,0 6.95,-0.24 -0.1,5.36" />
         <path id="path957" d="m 66.07,85.71 c 0,0 -5.02,-0.18 -6.02,-0.63 0,0 -5.04,-0.9 -6.81,-0.9 0,0 -0.53,0 -2.06,-0.36 0,0 -7.06,-1.71 -11.28,-1.8 -0.28,0 -8.67,-0.89 -10.51,-1.98 m 54.16,5.04 c 0,0 -6.36,2.34 -17.48,0.63" />
      </g>
      <g inkscape:groupmode="layer" id="layer3" inkscape:label="Features" class="line">
         <path id="path960" d="m 0.6063,95.46 c 0,0 21.0737,9.44 53.1337,6.84" />
         <path id="path962" d="m 16.13,86.79 c 0,0 5.14,5.4 6.65,5.84" />
         <path id="path964" d="m 66.81,60.22 c 0,0 2.63,-1.69 8.47,5.55" />
         <path id="path966" d="m 71.9,62.15 c 0,0 13.27,-0.35 15.25,-1.46" />
         <path id="path996" d="m 6.504,45.44 c 0,-0.67 -0.105,-5.09 1.783,-10.16" />
         <path id="path1000" d="m 22.81,30.15 c 0,0 14.88,-14.69 33.45,0.47" />
         <path id="path1002" d="m 85.17,30.25 c 0,0 -15.94,-6.94 -28.83,-0.75" />
         <path id="path1004" d="m 43.17,64.19 c 0,0 14.59,-4.96 22.48,-13.14" />
         <path id="path1006" d="m 54.26,56.01 c 0,0 3.86,-0.45 5.2,0" />
         <path id="path1008" d="m 29.15,51.05 c 0,0 5.72,7.07 19.92,5.49" />
         <path id="path1010" d="m 56.26,30.62 c 0,0 1.27,0.73 2.11,2.97" />
         <path id="path992" d="m -0.2317,94.74 c 0,0 -0.02,0.11 -0.04,0.18 0,0 0,0 0.02,0 0,0 0,0 0,0 h 0.117 c 0,0 0,0 0,0 0,-0.1 0,-0.1 0,-0.1 z m 0.4,0.27 c 0,0 0,0.1 0,0.1 0,0 0,0 0,0 l 0.447,0.36 z" />
         <path id="path998" d="m 51.58,20.58 c 0,0 4.68,3.79 4.68,10.04" />
      </g>
      <g inkscape:groupmode="layer" id="layer4" inkscape:label="Sclera" class="sclera coloured">
         <path id="path1015" d="m 64.12,38.02 c 0,0 4.27,8.13 -1.57,12.33 m 0,0 c 0,0 -6.19,4.03 -17.16,3.62 0,0 -7.31,0.99 -17.41,-7.06 0,0 -2.69,-2.17 -5.55,-1.58 0,0 23.42,-21.95 41.69,-7.31" />
         <path id="path1013" d="m 63.72,49.42 c 0,0 5.43,4.62 19.38,2.92 0,0 12.73,0.11 15.93,-5.27 1.07,-5.06 -3.02,-8.81 -3.02,-8.81 C 82.3,28.17 64.66,37.91 64.12,38.02 c 0,0 4.27,8.13 -1.57,12.33" />
      </g>
      <g inkscape:groupmode="layer" id="g1053" inkscape:label="Iris" class="iris coloured">
         <ellipse id="path1026" cx="87.23" cy="44.31" rx="4.299" ry="4.132" />
         <ellipse id="path1042" cx="52.45" cy="44.37" rx="4.293" ry="4.045" />
      </g>
      <g inkscape:groupmode="layer" id="layer5" inkscape:label="Inner Eye" class="pupil coloured">
         <ellipse id="path1049" cx="86.43" cy="45.53" rx="1.116" ry="1.123" />
         <ellipse id="path1051" cx="51.42" cy="45.62" rx="1.132" ry="1.123" />
         <ellipse id="path1053" cx="53.78" cy="46.94" rx="0.3576" ry="0.365" />
         <ellipse id="path1055" cx="51.71" cy="42.52" rx="0.8834" ry="0.4816" />
         <ellipse id="path1057" cx="86.61" cy="42.45" rx="0.7153" ry="0.4088" />
      </g>
   </g>
   <g inkscape:groupmode="layer" id="variant-swooner" inkscape:label="All" style="fill:none;stroke:black">
      <g inkscape:groupmode="layer" id="l1" inkscape:label="Shirt" class="shirt coloured">
         <path id="p0" d="M 80.96,112.8 H -1.854 V 91.65 c 1.2529,-3.13 2.2519,-1.69 2.2519,-1.69 0,0 10.6221,14.84 52.7721,13.34 0,0 16.46,0.1 18.31,-4 0,0 3.26,-5.25 9.48,13.5" />
      </g>
      <g inkscape:groupmode="layer" id="l2" inkscape:label="Right Arm" class="shirt coloured">
         <path id="p1" d="m 72.01,113 c 0.1,-0.3 3.48,-13.42 6.04,-16.49 0,0 15.37,3.07 18.53,-3.48 0,0 0.7,11.67 -2.22,19.77" />
      </g>
      <g inkscape:groupmode="layer" id="l3" inkscape:label="Left Arm" class="shirt coloured">
         <path id="p2" d="m 10.88,113.1 c 0,0 -0.11,-4.3 2.52,-8.1 2.63,-3.8 0.76,-6.44 0.76,-6.44 0.1,0.15 6.88,11.74 22.24,6.24 0,0 -1.19,5.1 0.1,8.4" />
      </g>
      <g inkscape:groupmode="layer" id="l4" inkscape:label="Neck" class="skin coloured">
         <path id="p3" d="m 69.86,98.63 c -6.57,1.15 -14.91,1.57 -25.41,0.45 0,0 -32.88,-1.37 -43.015,-10.04 L 0.8629,90.51 C 3.314,93.22 15.95,104.6 53.17,103.3 c 0,0 13.81,0.1 17.55,-3 L 69.86,98.63 M 1.435,89.04" />
      </g>
      <g inkscape:groupmode="layer" id="l5" inkscape:label="Right Hand" class="skin coloured">
         <path id="p4" d="m 79.68,73.73 c 0,0.23 -1.63,22.78 -1.63,22.78 0,0 15.4,3.07 18.51,-3.48 0,0 2.52,-4.56 5.84,-5.73 0,0 9.6,-7.11 6.9,-7.07 0,0 -5.5,1.17 -5,-3" />
      </g>
      <g inkscape:groupmode="layer" id="l7" inkscape:label="Outline" class="skin coloured">
         <path id="p5" d="m 92.07,87.46 c 0,0 -9.85,15.74 -47.62,11.58 0,0 -32.88,-1.31 -43.015,-10 0,0 -15.655,-11.31 -2.631,-35.52 0.2624,-0.66 9.341,-23.55 15.916,-21.05 0,0 12.62,-43.29 46.04,-18.55 0,0 25.05,-18.012 32.49,8.04 0.39,0.46 7.55,0.92 11.25,7.24 l 3.9,13.4 c 0,0 1.5,2.23 -3.7,6.99 0,0 -3.9,5.01 -9.58,6.22 0,0.46 9.28,8.75 8.78,16.09" />
      </g>
      <g inkscape:groupmode="layer" id="l8" inkscape:label="Features" class="thin line">
         <path id="p6" d="m 27.51,37.44 c 0,0 6.75,17.77 33.45,17.44" />
         <path id="p7" d="m 14.72,32.4 c 0,0 -1.11,1.45 -1.18,8.75" />
         <path id="p8" d="m 31.17,23.13 c 0,0 18.54,-14.405 33.61,0" />
         <path id="p9" d="m 64.78,23.13 c 0,0 22.94,-8.17 38.12,5.33" />
         <path id="p10" d="m 64.78,23.13 c 0,0 5.59,3.93 8.69,7.64" />
         <path id="p11" d="m 60.76,13.92 c 0,0 3.84,2.02 4.02,9.21" />
         <path id="p12" d="m 78.16,53.62 c 0,0 -4.5,1.65 3.36,2.86 7.86,1.21 13.6,-0.67 13.6,-0.67" />
      </g>
      <g inkscape:groupmode="layer" id="l9" inkscape:label="Lips" class="lips coloured">
         <path id="p13" d="m 99.98,79.51 c 0,0 6.12,7.63 -7.91,7.95 -0.9,-0.39 -37.15,1.32 -51.69,-6.05 0,0 -19.15,-8.69 -18.29,-19.14 0,0 0,-5.39 5.07,-5.59 0,0 1.9,-1.12 6.38,5.13 0,0 7.17,6.38 12.16,7.57 0,0 3.03,0.11 5.85,2.29 0,0 33.5,10.46 49.45,1 0,0 8.6,-3.57 3.3,4.56" />
         <path id="p14" class="line" d="m 104.3,77.23 c 0,0 -4,3.33 -13.17,3.52 -9.14,0.21 -32.04,0.92 -37.62,-1.97 0,0 -6.99,-4.34 -10.47,-4.14 -0.46,-0.26 -3.16,1.91 -13.55,-9.21" />
      </g>
      <g inkscape:groupmode="layer" id="l10" inkscape:label="Eyes">
         <g inkscape:groupmode="layer" id="l11" inkscape:label="Sclera" class="sclera coloured">
            <path id="p15" d="m 72.61,48.25 c 0,0 0.1,6.32 13.68,6.32 0,0 10.13,0.99 12.69,-1.64 0,0 10.32,-6.71 9.42,-12.57 0,0 0.3,-10.18 -5.5,-11.9 0,0 -10.03,-5.53 -19.9,-4.53 0,0 -9.34,2.95 -9.53,6.84 l -0.99,3.35" />
            <path id="p16" d="m 72.48,34.12 c 0,0 5.58,5.65 0.13,14.13 M 72.48,34.12 c 0,0 -8.15,-12.11 -20.93,-11.98 h -8.6 c 0,0 -3.6,-1.02 -10.21,5.59 0,0 -4,5.07 -6.3,5.07 0,0 -3.61,-0.52 -3.05,1.6 0.57,2.11 2.96,2.2 2.96,2.2 0,0 1.4,0 2.16,3.57 0,0 3.22,5.18 9.95,6.99 6.75,1.82 7.4,2.66 7.4,2.66 0,0 2.88,1.95 12,1.95 0,0 12.41,0.54 14.75,-3.52" />
         </g>
         <g inkscape:groupmode="layer" id="l12" inkscape:label="Iris" class="iris coloured">
            <path id="p17" d="m 98.58,32.11 c 0,0 -7.12,-6.55 -11.63,1.12" />
            <path id="p18" d="m 86.95,33.23 c 0,0 -2.95,6.28 5.69,8.95 0,0 7.34,0.98 7.46,-3.03 0,0 1.4,-4.91 -1.52,-7.04" />
            <path id="p19" d="m 45.5,31.82 c 0,0 -0.52,-8.94 11.15,-4.52 0,0 4.38,1.58 4.56,6.89 0,0 -1.35,6.55 -7.53,5.81 0,-0.14 -8.88,-0.61 -8.18,-8.18 z" />
         </g>
         <g inkscape:groupmode="layer" id="l13" inkscape:label="Pupil" class="pupil coloured">
            <circle id="p20" cx="90.89" cy="33.13" r="1.295" />
            <circle id="p21" cx="96.16" cy="34.19" r="1.295" />
            <circle id="p22" cx="91.95" cy="37.35" r="1.295" />
            <circle id="p23" cx="50.91" cy="28.92" r="0.9787" />
            <circle id="p24" cx="50.91" cy="34.19" r="0.8736" />
            <circle id="p25" cx="56.16" cy="32.08" r="1.379" />
         </g>
      </g>
      <g inkscape:groupmode="layer" id="l17" inkscape:label="Left Hand" class="skin coloured">
         <path id="p26" d="m 8.697,94.19 c 0,0 5.493,2.18 5.463,4.37 0.1,0.15 6.88,11.74 22.24,6.24 0,0 2.79,-0.6 2.43,-8.32 0,0 0.33,-5.81 -3.25,-5.86 0,0 -7.89,-2.09 -9.07,-3.55 0,0 -1.85,0.3 -1.46,-9.97 0,0 0.39,-5.06 -2.21,-4.64 0,0 -3.42,1.81 -4.53,8.33 0,0 -2.73,8.71 -1.52,-9.68 0,0 -0.88,-4.45 -5.86,5.73 0,0 -1.813,5.12 -2.884,-6.33 0,0 -2.28,-5.3 -3.908,4.05 -0.28,0.61 0.373,3.63 -1.302,6.14 0,0 -2.0001,1.81 1.442,6.84 m 0,0 c 0,0 -0.14,3.07 4.419,6.65" />
      </g>
   </g>
   <g inkscape:groupmode="layer" id="variant-pepelaugh" inkscape:label="All" style="fill:none;stroke:black">
      <g inkscape:groupmode="layer" id="l0" inkscape:label="Outline" class="skin coloured">
         <path id="p1" d="M 5.844,52.68 C 14.05,30.89 20.15,32.51 20.15,32.51 c 0,0 13.45,-40.577 44.07,-17.93 0,0 23.87,-17.537 29.68,7.85 0,0 37,15.43 1.6,35.97 0,0 6.2,3.87 5.8,5.98 9.9,1.69 0.2,17.42 -4.6,20.22 -7.6,11.8 -22.9,15.9 -22.9,15.9 l -6.1,0.4 C 21.27,103.1 6.964,89.8 6.964,89.8 -2.206,74.42 5.844,52.62 5.844,52.57" />
      </g>
      <g inkscape:groupmode="layer" id="l1" inkscape:label="Features" class="line">
         <path id="p2" d="m 64.22,14.58 c 0,0 3.98,6.6 2.74,10.21" />
         <path id="p3" d="m 20.15,32.51 c 0,0 -1.49,6.1 -1.24,9.34" />
         <path id="p4" d="m 37.2,69.36 c 0,0 -2.23,6.72 10.09,16.14" />
         <path id="p5" d="m 28.24,84 c 0,0 -0.12,4.7 6.98,5.7" />
         <path id="p6" d="m 54.88,61.15 c 0,0 11.83,-5.24 13.45,-6.6" />
         <path id="p7" d="m 64.34,59.28 c 0,0 6.73,-2.75 6.35,-5.23" />
         <path id="p8" d="m 44.05,49.69 c 0,0 28.01,8.09 32.12,-2.36" />
         <path id="p9" d="m 78.04,49.81 c 0,0 17.66,3.62 21.26,-0.62" />
         <path id="p10" d="m 36.08,38.99 c 0,0 -4.73,0.37 -1.24,3.23" />
         <path id="p11" d="m 37.95,40.85 c 0,0 0.37,0.87 2,1.37" />
         <path id="p12" d="m 38.95,43.59 -1.12,1.49" />
         <path id="p13" d="m 49.78,46.95 7.96,-0.37" />
         <path id="p14" d="m 59.61,45.83 5.11,-0.12" />
         <path id="p15" d="m 58.86,48.45 c 0,0 5.98,1.74 10.59,-1.87" />
         <path id="p16" d="m 92.2,43.84 4,0.12" />
         <path id="p17" d="m 81.39,27.66 c 0,0 9.21,-3.74 13.81,-0.87" />
         <path id="p18" d="m 49.78,25.67 c 2.24,0 9.58,0.12 9.58,0.12" />
         <path id="p19" d="m 45.79,52.3 c 0,0 14.32,3.24 17.19,2.12" />
         <path id="p20" d="m 76.04,56.41 c 0,0 -1.28,2.49 7.84,1.74 C 93,57.41 95.5,58.4 95.5,58.4" />
      </g>
      <g inkscape:groupmode="layer" id="l2" inkscape:label="Neck" class="skin coloured">
         <path id="p21" d="m 5.094,93 c 0,0 3.11,-1.3 7.706,3.7 4.6,4.9 20.79,8.8 27.88,8.8 7.1,0 21.04,0.7 26.27,-0.5 5.23,-1.3 6.87,-4.4 6.87,-4.4 l -6.1,0.4 C 21.27,103.1 6.964,89.8 6.964,89.8 l -0.13,2.8" />
      </g>
      <g inkscape:groupmode="layer" id="l3" inkscape:label="Eyelids" class="line">
         <path id="p22" d="m 35.84,23.8 c 0,0 18.42,-13.45 34.11,3.98" />
         <path id="p23" d="m 66.96,24.79 c 0,0 15.78,-5.72 29.04,-0.74" />
         <path id="p24" d="m 106.8,32.02 c 0,0 -15.6,-7.47 -31.38,0.49" />
         <path id="p25" d="m 108.3,35.12 c 0,0 -16.6,-7.71 -32.13,0.13" />
         <path id="p26" d="m 73.3,34.26 c 0,0 -11.82,-8.97 -28.38,2.48 0,0 -1.24,1.62 -5.47,1.75" />
         <path id="p27" d="m 71.44,29.15 c 0,0 -12.58,-3.23 -23.65,2.24 0,0 -4.86,3.61 -6.72,3.86 -0.63,0.12 -2.75,0.12 -3.49,1.12" />
      </g>
      <g inkscape:groupmode="layer" id="l4" inkscape:label="Lips" class="lips coloured">
         <path id="p28" d="m 101.3,64.38 c 11.2,3.42 -2.9,18.92 -2.9,18.92 0,0 -7.8,7.4 -38.91,4.4 0,0 -8.84,-1.5 -16.31,-12.74 -0.12,-0.37 -5.73,-11.33 16.56,-10.33" />
         <path id="p29" d="m 59.74,64.63 c 0,0 11.33,-1.5 41.56,-0.25" />
      </g>
      <g inkscape:groupmode="layer" id="l5" inkscape:label="Lips Inner" style="display:inline;fill:white">
         <path id="p30" d="m 88.4,83.2 c 0,0 5.3,-1.4 10.5,-10.48 0,0 5.4,-6.1 -3.8,-5.98 -9.22,0.13 -32.62,-0.37 -41.59,1.75 m 0,0 c 0,0 -14.06,2.61 1.25,12.34 0,0 2.86,4.07 14.07,4.17 0,0 11.2,0.9 19.57,-1.8" />
      </g>
      <g inkscape:groupmode="layer" id="l6" inkscape:label="Teeth" class="line">
         <path id="p31" d="m 53.51,68.49 c 0,0 2.62,10.2 1.25,12.34" />
         <path id="p32" d="m 60.23,67.62 c 0,0 2.87,10.22 0.5,16.38" />
         <path id="p33" d="m 66.58,67.24 c 0,0 3.74,10.6 2.25,17.76" />
         <path id="p34" d="m 72.93,66.74 c 0,0 6.32,9.22 1.25,18.16" />
         <path id="p35" d="m 81.24,66.99 c 0,0 6.28,10.46 0.79,17.21" />
         <path id="p36" d="m 89.6,66.74 c 0,0 4.8,11.45 -1.2,16.46" />
         <path id="p37" d="m 96.9,66.62 c 0,0 0.5,4.23 0.2,8.97" />
         <path id="p38" d="m 50.65,77.57 c 0,0 32.23,-5.47 45.45,-0.74" />
      </g>
      <g inkscape:groupmode="layer" id="l7" inkscape:label="Sclera" class="sclera coloured">
         <path id="p39" d="m 41.57,42.72 c 0,0 14.19,-6.23 24.26,-4.36 10.09,1.87 10.34,4.61 0.13,4.61 -10.2,0 -25.52,0.99 -24.39,-0.25 z" />
         <path id="p40" d="m 82.67,39.86 c 0,0 6.43,-3.12 17.73,-2.87 11.3,0.25 12,4.24 -5.3,4.24 -17.28,0 -10.72,-0.5 -12.43,-1.37 z" />
      </g>
      <g inkscape:groupmode="layer" id="l8" inkscape:label="Iris" class="iris coloured">
         <ellipse id="p41" cx="101.3" cy="38.92" rx="0.9957" ry="1.929" />
         <ellipse id="p42" cx="63.85" cy="40.61" rx="0.9957" ry="1.929" />
      </g>
      <g inkscape:groupmode="layer" id="l9" inkscape:label="Shirt" class="shirt coloured">
         <path id="p43" d="m 87.87,112.4 0.22,18.4 -96.832,-1.2 -6.868,-37 20.704,0.4 m 82.776,19.4 0.14,0.6 M 5.094,93 c 0,0 3.11,-1.3 7.716,3.7 4.6,4.9 20.79,8.8 27.88,8.8 7.1,0 21.04,0.7 26.27,-0.5 5.22,-1.3 6.84,-4.4 6.84,-4.4 0,0 13.43,9 14.07,11.8" />
      </g>
   </g>
</svg>
