<?xml version="1.0" encoding="UTF-8" standalone="no"?>
<svg xmlns="http://www.w3.org/2000/svg" xmlns:inkscape="http://www.inkscape.org/namespaces/inkscape" version="1.1" id="svg919" width="112" height="112" viewBox="0 0 112 112">
   <g inkscape:groupmode="layer" id="variant-monkas" inkscape:label="All" style="fill:none;stroke:black">
      <g inkscape:groupmode="layer" id="core-hair-1" inkscape:label="Hair" class="hair coloured thick">
         <path id="path1128-3" d="M -4.512,29.27 C 12.43,4.338 28.68,3.422 39.53,2.567 c 5.89,-0.459 9.75,6.519 9.75,6.519 0,0 13.69,-12.745 31.61,-3.799 0,0 29.91,13.273 23.21,38.753 0,0 -12.23,53.24 -1.1,69.26 H -4.616 Z" />
         <path id="path1128" d="m 51.58,20.58 c 0,0 0.1,-7.68 -2.3,-11.494" />
      </g>
      <g inkscape:groupmode="layer" id="layer1" inkscape:label="Shirt" class="shirt coloured thick">
         <path id="path932" d="m 76.62,113.8 c 0,0 -7.23,-10.2 -13.3,-12.3 0,0 -6.66,7.3 -28.97,5.1 C 12.04,104.4 0.8103,98.98 -1.059,96.81 l 0.1463,16.49 z" />
      </g>
      <g inkscape:groupmode="layer" id="layer6" inkscape:label="Outline" class="skin coloured thick">
         <path id="path932-3" d="m 63.32,101.5 c 0,0 -6.66,7.3 -28.97,5.1 C 12.04,104.4 0.8073,98.98 -1.059,96.81 -22.09,72.38 4.321,40.52 4.321,40.52 6.673,39.07 8.983,33.78 8.983,33.78 10.1,30.82 12.91,26.77 12.91,26.77 c 19.88,-25.85 38.62,-6.2 38.62,-6.2 2.8,-1.82 8,-3.97 8,-3.97 11.21,-6.01 19.42,1.8 19.42,1.8 2.03,1.06 6.67,8.54 6.67,8.54 2.34,4.07 8.77,9 8.77,9 l 3.27,4.31 c 3.14,6.59 -0.32,11.85 -0.32,11.85 -5.47,7.76 -10.19,8.59 -10.19,8.59 0,0 8.05,8.1 8.59,16.56 l -13.1,14.76 c -9.49,6.97 -19.29,9.49 -19.29,9.49" />
      </g>
      <g inkscape:groupmode="layer" id="layer2" inkscape:label="Lips" class="lips coloured thick">
         <path id="path1165" d="m 91.78,82.02 c 0,0 -4,2.7 -8.23,3.06 0,0 7.97,-1.62 7.69,1.44 0,0 -1.66,5.58 -11.2,5.12 0,0 -27.06,-1.16 -33.53,-2.51 0,0 -4.75,-0.73 -7.28,-1.62 -2.55,-0.99 -12.39,0.99 -14.92,-0.27 0,0 -10.63,-6.03 2.27,-11.52 0,0 5.79,-1.78 20.97,1.99 0,0 24.87,6.92 44.32,-1.05 0,0 6.95,-0.24 -0.1,5.36" />
         <path id="path957" d="m 66.07,85.71 c 0,0 -5.02,-0.18 -6.02,-0.63 0,0 -5.04,-0.9 -6.81,-0.9 0,0 -0.53,0 -2.06,-0.36 0,0 -7.06,-1.71 -11.28,-1.8 -0.28,0 -8.67,-0.89 -10.51,-1.98 m 54.16,5.04 c 0,0 -6.36,2.34 -17.48,0.63" />
      </g>
      <g inkscape:groupmode="layer" id="layer3" inkscape:label="Features" class="line">
         <path id="path960" d="m 0.6063,95.46 c 0,0 21.0737,9.44 53.1337,6.84" />
         <path id="path962" d="m 16.13,86.79 c 0,0 5.14,5.4 6.65,5.84" />
         <path id="path964" d="m 66.81,60.22 c 0,0 2.63,-1.69 8.47,5.55" />
         <path id="path966" d="m 71.9,62.15 c 0,0 13.27,-0.35 15.25,-1.46" />
         <path id="path996" d="m 6.504,45.44 c 0,-0.67 -0.105,-5.09 1.783,-10.16" />
         <path id="path1000" d="m 22.81,30.15 c 0,0 14.88,-14.69 33.45,0.47" />
         <path id="path1002" d="m 85.17,30.25 c 0,0 -15.94,-6.94 -28.83,-0.75" />
         <path id="path1004" d="m 43.17,64.19 c 0,0 14.59,-4.96 22.48,-13.14" />
         <path id="path1006" d="m 54.26,56.01 c 0,0 3.86,-0.45 5.2,0" />
         <path id="path1008" d="m 29.15,51.05 c 0,0 5.72,7.07 19.92,5.49" />
         <path id="path1010" d="m 56.26,30.62 c 0,0 1.27,0.73 2.11,2.97" />
         <path id="path992" d="m -0.2317,94.74 c 0,0 -0.02,0.11 -0.04,0.18 0,0 0,0 0.02,0 0,0 0,0 0,0 h 0.117 c 0,0 0,0 0,0 0,-0.1 0,-0.1 0,-0.1 z m 0.4,0.27 c 0,0 0,0.1 0,0.1 0,0 0,0 0,0 l 0.447,0.36 z" />
         <path id="path998" d="m 51.58,20.58 c 0,0 4.68,3.79 4.68,10.04" />
      </g>
      <g inkscape:groupmode="layer" id="layer4" inkscape:label="Sclera" class="sclera thick coloured">
         <path id="path1015" d="m 64.12,38.02 c 0,0 4.27,8.13 -1.57,12.33 m 0,0 c 0,0 -6.19,4.03 -17.16,3.62 0,0 -7.31,0.99 -17.41,-7.06 0,0 -2.69,-2.17 -5.55,-1.58 0,0 23.42,-21.95 41.69,-7.31" />
         <path id="path1013" d="m 63.72,49.42 c 0,0 5.43,4.62 19.38,2.92 0,0 12.73,0.11 15.93,-5.27 1.07,-5.06 -3.02,-8.81 -3.02,-8.81 C 82.3,28.17 64.66,37.91 64.12,38.02 c 0,0 4.27,8.13 -1.57,12.33" />
      </g>
      <g inkscape:groupmode="layer" id="g1053" inkscape:label="Iris" class="iris coloured">
         <ellipse id="path1026" cx="87.23" cy="44.31" rx="4.299" ry="4.132" />
         <ellipse id="path1042" cx="52.45" cy="44.37" rx="4.293" ry="4.045" />
      </g>
      <g inkscape:groupmode="layer" id="layer5" inkscape:label="Inner Eye" class="pupil coloured">
         <ellipse id="path1049" cx="86.43" cy="45.53" rx="1.116" ry="1.123" />
         <ellipse id="path1051" cx="51.42" cy="45.62" rx="1.132" ry="1.123" />
         <ellipse id="path1053" cx="53.78" cy="46.94" rx="0.3576" ry="0.365" />
         <ellipse id="path1055" cx="51.71" cy="42.52" rx="0.8834" ry="0.4816" />
         <ellipse id="path1057" cx="86.61" cy="42.45" rx="0.7153" ry="0.4088" />
      </g>
   </g>
</svg>
