<?xml version="1.0" encoding="UTF-8" standalone="no"?>
<svg xmlns="http://www.w3.org/2000/svg" xmlns:inkscape="http://www.inkscape.org/namespaces/inkscape" version="1.1" id="svg2" width="112" height="112" viewBox="0 0 112 112">
   <g inkscape:groupmode="layer" id="variant-peeposhy" inkscape:label="All" style="fill:none;stroke:black">
      <g inkscape:groupmode="layer" id="layer6" inkscape:label="Blush">
         <ellipse id="p1" style="fill:#f6adbc;fill-opacity:0.4805;stroke-width:0" cx="31.289511" cy="73.935661" rx="11.944056" ry="8.8503494" />
         <ellipse id="p2" style="fill:#f6adbc;fill-opacity:0.4805;stroke-width:0" cx="101.84712" cy="68.78418" rx="9.2303476" ry="6.1920238" />
      </g>
      <g inkscape:groupmode="layer" id="layer2" inkscape:label="Outline" class="thick skin">
         <path id="p3" d="m -0.3323 99.02 c 0 0 3.7663 -8.64 3.8763 -17.61 c 0.111 -8.97 5.539 -14.84 7.306 -16.5 c 0 0 7.32 -5.32 10.31 -13.4 c 2.1 -0.67 10.96 -15.84 26.69 -9.86 c 0 0 14.51 5.09 22.71 -2 c 0 0 7.97 -5.2 18.6 3.88 c 0 0 22.84 5.76 17.64 17.94 c 0 0 -7.89 6.21 -5.6 7.76 c 0 0.88 4.3 5.06 1.8 7.53 c -0.2 0.77 0.1 5.75 -3.2 8.53 c 0 0 0.2 7.53 -0.89 10.19 c 0 0 9.19 1.88 13.39 7.32" />
      </g>
      <g inkscape:groupmode="layer" id="layer7" inkscape:label="Features" class="thin line">
         <path id="p4" d="m 33.56,51.06 c 0,0 4.87,-8.31 25.14,-1.66" />
         <path id="p5" d="m 58.7,49.4 c 1.11,0.22 3.66,2.22 10.42,-2.77 0,0 5.53,-5.32 11.96,-1.55" />
         <path id="p6" d="m 34.3,61.25 c 0,0 17.39,-15.75 35.48,-9.4" />
         <path id="p7" d="m 69.78,51.85 c 0,0 8.07,-9.09 16.92,-5.25" />
         <path id="p8" d="m 37.75,61.95 c 0.78,0 12.92,-10.96 33.21,-7.91 0,0 13.08,-8.14 20.05,-6.81" />
      </g>
      <g inkscape:groupmode="layer" id="layer4" inkscape:label="Sclera" class="sclera coloured">
         <path id="path858-3" d="m 72.92,65.32 c 0,0 1.09,-2.11 0.39,-6.27 -21.3,-11.67 -34.23,10.5 -34.23,10.5 0,0 24.52,9.48 33.84,-4.23" />
         <path id="path862-0" d="m 106.8 61.47 c -21.23 12.45 -33.88 3.85 -33.88 3.85 c 0 0 1.09 -2.11 0.39 -6.27 c 0 0 19.5 -14.17 32.69 -5.24 c 0 0 2.2 2.98 0.8 7.66" />
      </g>
      <g inkscape:groupmode="layer" id="layer40" inkscape:label="Iris" class="iris coloured">
         <ellipse id="path870-6" cx="57.54" cy="64.5" rx="9.673" ry="7.597" />
         <ellipse id="path870-3-7" cx="90.87" cy="59.33" rx="8.59" ry="7.611" />
      </g>
      <g inkscape:groupmode="layer" id="layer5" inkscape:label="Eyes Inner" class="pupil coloured">
         <ellipse id="path917-2" cx="61.05" cy="63.26" rx="2.78" ry="2.839" />
         <ellipse id="path917-5-9" cx="55.18" cy="60.64" rx="2.065" ry="2.026" />
         <ellipse id="path917-3-1" cx="93.76" cy="58.44" rx="2.78" ry="2.839" />
         <ellipse id="path917-5-5-2" cx="87.88" cy="55.82" rx="2.065" ry="2.026" />
         <path id="path963-7" d="m 54.29,65.2 c 0,0 -1.48,4.03 2.32,5.37 0,0 5.97,1.55 2.19,-2.48 0,-0.1 -3.06,-7.11 -4.51,-2.89 z" />
         <path id="path985-0" d="m 87.1,60.82 c 0,0.1 2.76,2.33 1.01,4.3 -1.74,1.96 2.87,1.74 2.95,-0.23 0.1,-1.96 0.15,-4.83 -2.85,-5.12 -3.01,-0.29 -0.67,1.37 -1.11,1.05 z" />
      </g>
      <g inkscape:groupmode="layer" id="layer1" inkscape:label="Shirt" class="line">
         <path id="path843" d="m 2.769,89.72 c 0,0 19.831,22.28 96.141,5.76" />
      </g>
      <g inkscape:groupmode="layer" id="layer3" inkscape:label="lips" class="lips coloured">
         <path id="path848" d="m 102.6 71.51 c -2 -3.37 -9.16 0.86 -9.16 0.86 c -7.44 6.58 -30.31 3.68 -31.49 3.21 c -9.08 -2.74 -11.98 -1.41 -11.98 -1.41 c -8.22 3.21 -1.1 8.3 -1.1 8.3 c 11.99 6.82 28.12 5.49 28.12 5.49 c 11.67 0.07 22.81 -2.67 22.81 -2.67" />
         <path id="path854" d="M 52.08 78.63 C 52.08 78.63 77.38 87.25 96.26 77.93 C 96.26 77.93 99.97 75.43 103 76.76" />
      </g>
      <g inkscape:groupmode="layer" id="layer810" inkscape:label="Left Hand" class="skin coloured">
         <g inkscape:groupmode="layer" id="layer900" inkscape:label="Arm" class="shirt coloured">
            <path id="path11450" d="M 41.09 97.24 C 41.09 97.24 30.23 106.6 26.55 107.1 L 36.97 119.8 L 49.81 110.7" />
         </g>
         <g inkscape:groupmode="layer" id="layer820" inkscape:label="Hand" class="skin coloured">
            <path id="path11430" d="m 61.72 105.2 c 0 0 6.42 2.7 5.71 -3.5 C 62.458 95.66 57.14 97.844 61.72 105.2" />
            <path id="path11410" d="m 52.83,102.2 c 0,0 -1.66,-1.4 -0.72,2.7 -0.11,0.3 2.83,4.6 -1.05,5.4 0,0 -3.49,3.6 -9.97,-13.05 m 0,0 c 0.56,0.11 7.98,-10.63 19.61,-4.98 0,0 6.98,2.54 11.52,0.77 0,0 6.98,0 1.44,5.54 0,0 -5.32,6.02 -13.96,1.42 l 1.11,3.6 c 0,0 2.44,4.4 -1.88,5.8 0,0 -5.21,2.1 -6.1,-7.2" />
         </g>
      </g>
      <g inkscape:groupmode="layer" id="layer81" inkscape:label="Right Hand" class="skin coloured" transform="matrix(-1.018,0,0,1,153.4,-0.2355)">
         <g inkscape:groupmode="layer" id="layer90" inkscape:label="Arm" class="shirt coloured">
            <path id="path1145" d="M 41.09 97.24 C 41.09 97.24 30.23 106.6 26.55 107.1 L 36.97 119.8 L 49.81 110.7" />
         </g>
         <g inkscape:groupmode="layer" id="layer82" inkscape:label="Hand" class="skin coloured">
            <path id="path1143" d="m 61.72 105.2 c 0 0 6.42 2.7 5.71 -3.5 C 62.458 95.66 57.14 97.844 61.72 105.2" />
            <path id="path1141" d="m 52.83,102.2 c 0,0 -1.66,-1.4 -0.72,2.7 -0.11,0.3 2.83,4.6 -1.05,5.4 0,0 -3.49,3.6 -9.97,-13.05 m 0,0 c 0.56,0.11 7.98,-10.63 19.61,-4.98 0,0 6.98,2.54 11.52,0.77 0,0 6.98,0 1.44,5.54 0,0 -5.32,6.02 -13.96,1.42 l 1.11,3.6 c 0,0 2.44,4.4 -1.88,5.8 0,0 -5.21,2.1 -6.1,-7.2" />
         </g>
      </g>
      <g inkscape:groupmode="layer" id="g1231" inkscape:label="Blush">
         <ellipse style="fill:#f6adbc;fill-opacity:0.4805;stroke-width:0;" id="ellipse1227" cx="31.289511" cy="73.935661" rx="11.944056" ry="8.8503494" />
         <ellipse style="fill:#f6adbc;fill-opacity:0.4805;stroke-width:0;" id="ellipse1229" cx="101.84712" cy="68.78418" rx="9.2303476" ry="6.1920238" />
      </g>
   </g>
</svg>
