<?xml version="1.0" encoding="UTF-8" standalone="no"?>
<svg xmlns="http://www.w3.org/2000/svg" xmlns:inkscape="http://www.inkscape.org/namespaces/inkscape" version="1.1" id="svg2" width="112" height="112" viewBox="0 0 112 112">
    <g inkscape:groupmode="layer" id="variant-peeporecon" inkscape:label="All">
        <g inkscape:groupmode="layer" id="g17" inkscape:label="outline" class="skin coloured">
            <path id="path2387" d="m 81.5 69.1 c -1.81 6.95 -9.63 12.87 -9.63 12.87 c -0.13 2.68 -0.68 3.54 -0.68 3.54 c -14.31 20.69 -44.52 11.74 -44.52 11.74 c 0 0 -15.2 -0.35 -18.831 -11.52 l 0.8 -2.8 c -1.704 -2.08 -4.022 -6.38 -4.089 -14.92 c 0.222 -0.89 1.662 -15.07 2.769 -19.05 c 0.052 -0.24 2.99 -12.31 10.35 -18.53 c 0 0 1.07 -0.95 1.06 -1.84 c 0 0 0 -12.41 4.82 -16.6 c 0 0 11.08 -12.298 25.97 -0.32 c 0 0 0.39 0.31 1.41 1.96 c 0.27 -0.12 11.16 -7.918 24.83 -3.688 c 0 0 6.93 2.078 7.36 7.128 c 0 0 -0.81 1.92 1.06 5.49 c 0.35 0.52 3.64 1.52 3.8 1.6 c 0 0 5.36 1.37 6.42 9.64 c 0 0 2.27 0.82 2.46 1.64 c 0.6 2.26 -0.4 2.87 -0.4 2.87 c 0 0 3.14 3.46 -0.58 10.35 c 0 0 2.54 3.76 -2.82 6.42 c 0 0 -0.23 0.1 -1.45 1.41 l -0.12 2.62 c 0 0.28 3.56 2.43 0.39 6.43 l -5.05 0.31 c 0 0 1.21 5.64 -4.86 3.33" />
        </g>
        <g inkscape:groupmode="layer" id="layer6" inkscape:label="features" class="line">
            <path style="stroke-width:0.4" id="path1524" d="m 52.72,56.1 c 0,0 10.5,-4.12 7.76,-8.33" />
            <path style="stroke-width:0.4" id="path1522" d="m 37.05,55.35 c 0,0 6.9,4.24 15.67,0.75" />
            <path style="stroke-width:0.6" id="path1494" d="m 24.15,29.72 c 0,0 13.08,-8.93 28.51,-4.39" />
            <path style="stroke-width:0.6" id="path1496" d="m 52.66,25.33 c 0,0 10.03,2.35 10.81,14.02" />
            <path style="stroke-width:0.4" id="path1166" d="m 51.22,59.76 c 0,0 4.62,-0.16 8.11,-4.07" />
            <path style="stroke-width:0.3" id="path1164" d="m 79.22,56.23 c 0.16,0.28 1.8,1.85 2.55,3.45" />
            <path style="stroke-width:0.8" id="path1146" d="m 50.91,13.63 c 0,0 2.66,3.52 6.81,11.63" />
            <path id="path1140" d="m 16.21,36.3 c 0,-0.35 2.31,-5.32 2.51,-7.71" />
            <path id="path1152-6-2" d="m 63.96,38.3 c 0,0 19.19,-8.1 30.42,-4.5" />
            <path style="stroke-width:0.8" id="path1162-5-9" d="m 91.6,56.47 c 0,0 -4.66,3.68 -9.01,2.23" />
            <path id="path1150-7" d="m 57.92,26.32 c 0.94,-0.43 4.7,-2.98 12.8,-3.53 0.28,-0.1 10.03,-1.37 17.24,1.37 0,0 5.36,1.37 6.42,9.64" />
            <path id="path1550-3" d="m 10.52,84.84 c 0,0 -0.776,-0.53 -1.885,-1.9" />
        </g>
        <!-- Outline -->
        <g inkscape:groupmode="layer" id="layer7" inkscape:label="sclera" class="sclera coloured">
            <path id="path1527" d="m 25.85 35.8 c 0.31 0 0.19 0.67 12.68 -3.99 c 0 0 7.13 -0.12 11.13 0.94 c 0 0 11.43 0.86 13.39 7.28 c -0.97 5.73 -2.57 7.71 -2.57 7.71 c -6.18 5.76 -14.6 3.02 -14.6 3.02 c -5.31 -1.58 -10.85 -5.79 -10.85 -5.79 c -1.72 -1.38 -8.89 -8.58 -9.06 -8.89 Z" />
            <path id="path1527-7" d="m 60.48,47.77 c 0,0 1.6,-1.98 2.57,-7.71 m 0,0 c 0,0 6.58,2.08 10.65,0 0.31,-0.12 19.37,-6.54 22.75,-1.8 0,0 3.14,3.45 -0.58,10.34 -1.81,6.26 -18.14,6.5 -18.68,6.38 -11.71,0.35 -16.71,-7.21 -16.71,-7.21" />
        </g>
        <g inkscape:groupmode="layer" id="layer8" inkscape:label="iris" class="iris coloured">
            <path id="path1574" d="m 44.64,31.99 c 0,0 -3.01,7.95 1.84,11.01 0,0 5.06,4.78 11.6,0.16 0,0 3.7,-1.92 1.23,-7.49" />
            <path id="path1580" d="M 90.33,36.52 C 94.2,46.86 86.47,49.3 86.08,49.46 81.02,51.61 77.4,48.55 77.4,48.55 74.15,46.52 75.72,39.41 75.72,39.41" />
            <path id="path2211" d="m 90.33,36.52 c 0,0 -7.65,0.41 -14.61,2.89" />
            <path id="path2213" d="m 59.31,35.67 c 0,0 -5.2,-3.07 -14.67,-3.46" />
        </g>
        <g inkscape:groupmode="layer" id="layer9" inkscape:label="lips" class="lips coloured">
            <path id="path1168-6" d="m 86.82,65.83 c 0,0 1.21,5.64 -4.86,3.33 0,0 -2.15,-0.54 -2.71,-0.82 C 71.39,67.01 60.98,72 60.98,72 c -9.92,4.87 -18.61,3.98 -19.78,3.98 -6.64,-0.16 -4.59,-7.31 -4.59,-7.31 0.5,-5.92 6.92,-4.32 6.92,-4.32 13.85,3.16 20.88,-2.1 20.88,-2.1 6.98,-4.21 20.05,-1 20.05,-1 6.03,0.83 7.02,-2.16 7.02,-2.16 0,0.28 3.56,2.43 0.39,6.43 l -5.05,0.31" />
            <path class="line" id="path1055" d="m 86.82,65.83 c 0,0 -5.57,1.74 -13.22,-1.09 -1.22,-0.11 -5.59,-3.6 -12.79,1.83 -0.67,0 -4.65,4.98 -14.51,4.1" />
        </g>
        <g inkscape:groupmode="layer" id="l1" inkscape:label="Shirt" class="shirt coloured">
            <path id="left" d="m 0,112 c 0,0 1,-20 5,-25 0,0 2,-2 3,-1 0,0 31,31 63.4,-0.27 11,1 12.8,26.47 12.8,26.47 h -84" />
        </g>

        <g inkscape:groupmode="layer" id="layer2" inkscape:label="arms" class="shirt coloured">
            <path id="path10" d="M 31.49,60.62 C 28.02,59.33 7.864,85.73 7.864,85.73 -3.069,107.9 22.04,107.7 22.04,107.7 c 0,0 3.16,-8.18 2.99,-8.24 0.55,-2.27 16.67,-28.58 16.67,-28.58 0,0 4.24,-7.01 -0.15,-7.21 z" />
            <path id="path12" d="m 89.83,69.56 c 0,0 -3.51,0.23 -13.07,18.83 0,0 -7.75,17.51 7.09,11.52 C 87.96,98 96.36,70.22 96.36,70.22 Z" />
        </g>
        <g inkscape:groupmode="layer" id="g71" inkscape:label="TP" class="line">
            <path style="fill:white" id="p7" d="m 58.7 20.1 l -22.7 0.8 c 0 0 -5.6 -0.62 -9 4.7 c 0 0 -5.8 7 -4.69 20 c 0 0 1.25 9.6 6 11 c 0 0 6.26 6.73 23 9.24" />
            <path style="fill:white" id="p2-2" d="M 89.28 19.11 C 87.41 19.11 71.28 20.98 71.28 20.98 L 71.99 61.2 C 82.8 66.83 85.83 67.3 97.33 67.3 Z" />
            <path style="fill:white" id="p1" d="m 42.13,43.86 c 0,0 0.78,-15.82 6.26,-18.8 0,0 3.8,-5.63 13.15,-5.32 0,0 14.25,-2.34 16.44,12 0,0 3.28,16.13 -1.4,22.24 0,0 -6.89,13.31 -12.21,13.62 0,0 -8.61,2.66 -13,-1.87 0,0 -10.96,-6.1 -9.24,-21.77 z" />
            <path style="fill:white" id="p5" d="m 97.33 67.3 c 0 0 8.27 -1.25 9.97 -14.25 c 0 0 4.2 -11.74 1.7 -19.6 c 0 0 -4 -14 -14.25 -14.1 c 0 0 -10 -1.72 -13.78 7.4 c 0 0 -2.66 5.8 -1.56 15.66 c 0 0 -1.72 9.71 1.25 15.5 c 0 0 4 11 16.6 9.39" />
            <path id="p8" d="m 22.86,33.83 c 0,0 8,1.4 13,-1 0,0 1.1,-0.46 3.75,1.4 0,0 0.78,3 5.16,-4.38" />
        </g>
        <g inkscape:groupmode="layer" id="layer1" inkscape:label="hands" class="skin coloured">
            <path id="path5" d="m 31.49,60.62 c 0,0 2.86,-9.75 1.1,-11.94 0,0 -4.5,-8.54 2.15,-1.64 0,0 1.29,-16.96 2.23,0.55 0,0 8.2,-16.57 2.9,2.23 0,0 14.9,-11.4 2.82,2.94 0,0 9.12,-1.18 0.31,5.3 0,0 -1.57,1.17 -1.45,5.6 0,0 -8.54,-1.76 -10.07,-3.06" />
            <path id="path6" d="m 89.83,69.56 c 0,0 -0.67,-2.66 0,-2.44 0.67,0.22 7.45,0.23 7.45,0.23 l -0.91,2.87 z" />
        </g>
        <g inkscape:groupmode="layer" id="g75" inkscape:label="TP Holes" style="fill:black">
            <ellipse id="p9" cx="61.87" cy="43.47" rx="4.4" ry="9" />
            <ellipse id="p10" cx="94.3" cy="44.17" rx="4.4" ry="9" />
        </g>
    </g>
</svg>
