<?xml version="1.0" encoding="UTF-8" standalone="no"?>
<svg xmlns="http://www.w3.org/2000/svg" xmlns:inkscape="http://www.inkscape.org/namespaces/inkscape" version="1.1" id="svg2" width="112" height="112" viewBox="0 0 112 112">
   <g inkscape:groupmode="layer" id="variant-ppl" inkscape:label="All" style="fill:none;stroke:black">
      <g inkscape:groupmode="layer" id="l0" inkscape:label="Mouth" class="lips sq coloured">
         <path id="p1" d="M 45,65 V 75 H 55 65 75 85 V 65 H 75 65 55 Z" />
      </g>
      <g inkscape:groupmode="layer" id="l1" inkscape:label="Iris" class="iris sq coloured">
         <rect id="r2" width="10" height="10" x="75" y="45" />
         <rect id="r3" width="10" height="10" x="45" y="45" />
      </g>
      <g inkscape:groupmode="layer" id="l2" inkscape:label="Pupil" class="pupil sq coloured">
         <path id="p4" d="M 55,45 V 55 H 65 75 V 45 H 65 Z" />
         <rect id="p5" width="10" height="10" x="35" y="45" />
      </g>
      <g inkscape:groupmode="layer" id="l3" inkscape:label="Body" class="skin sq coloured">
         <path id="p6" d="M 35,25 V 35 H 25 V 45 H 15 V 55 65 H 5 v 10 10 h 10 10 10 10 10 10 10 V 75 h -10 H 55 45 V 65 h 10 10 10 10 V 55 h -10 -10 H 55 45 35 V 45 h 10 10 10 10 10 v 10 h 10 V 45 35 h -10 V 25 h -10 -10 V 35 H 55 V 25 H 45 Z" />
      </g>
      <g inkscape:groupmode="layer" id="l4" inkscape:label="Shirt" class="shirt sq coloured">
         <path id="p7" d="M 5,85 V 95 H 15 25 35 45 55 65 75 V 85 H 65 55 45 35 25 15 Z" />
      </g>
   </g>
</svg>
