<?xml version="1.0" encoding="UTF-8" standalone="no"?>
<svg xmlns="http://www.w3.org/2000/svg" xmlns:inkscape="http://www.inkscape.org/namespaces/inkscape" version="1.1" id="svg2" width="112" height="112" viewBox="0 0 112 112">
   <g inkscape:groupmode="layer" id="variant-swooner" inkscape:label="All">
      <g inkscape:groupmode="layer" id="l1" inkscape:label="Shirt" class="shirt coloured">
         <path id="p0" d="M 80.96,112.8 H -1.854 V 91.65 c 1.2529,-3.13 2.2519,-1.69 2.2519,-1.69 0,0 10.6221,14.84 52.7721,13.34 0,0 16.46,0.1 18.31,-4 0,0 3.26,-5.25 9.48,13.5" />
      </g>
      <g inkscape:groupmode="layer" id="l2" inkscape:label="Right Arm" class="shirt coloured">
         <path id="p1" d="m 72.01,113 c 0.1,-0.3 3.48,-13.42 6.04,-16.49 0,0 15.37,3.07 18.53,-3.48 0,0 0.7,11.67 -2.22,19.77" />
      </g>
      <g inkscape:groupmode="layer" id="l3" inkscape:label="Left Arm" class="shirt coloured">
         <path id="p2" d="m 10.88,113.1 c 0,0 -0.11,-4.3 2.52,-8.1 2.63,-3.8 0.76,-6.44 0.76,-6.44 0.1,0.15 6.88,11.74 22.24,6.24 0,0 -1.19,5.1 0.1,8.4" />
      </g>
      <g inkscape:groupmode="layer" id="l4" inkscape:label="Neck" class="skin coloured">
         <path id="p3" d="m 69.86,98.63 c -6.57,1.15 -14.91,1.57 -25.41,0.45 0,0 -32.88,-1.37 -43.015,-10.04 L 0.8629,90.51 C 3.314,93.22 15.95,104.6 53.17,103.3 c 0,0 13.81,0.1 17.55,-3 L 69.86,98.63 M 1.435,89.04" />
      </g>
      <g inkscape:groupmode="layer" id="l5" inkscape:label="Right Hand" class="skin coloured">
         <path id="p4" d="m 79.68,73.73 c 0,0.23 -1.63,22.78 -1.63,22.78 0,0 15.4,3.07 18.51,-3.48 0,0 2.52,-4.56 5.84,-5.73 0,0 9.6,-7.11 6.9,-7.07 0,0 -5.5,1.17 -5,-3" />
      </g>
      <g inkscape:groupmode="layer" id="l7" inkscape:label="Outline" class="skin coloured">
         <path id="p5" d="m 92.07,87.46 c 0,0 -9.85,15.74 -47.62,11.58 0,0 -32.88,-1.31 -43.015,-10 0,0 -15.655,-11.31 -2.631,-35.52 0.2624,-0.66 9.341,-23.55 15.916,-21.05 0,0 12.62,-43.29 46.04,-18.55 0,0 25.05,-18.012 32.49,8.04 0.39,0.46 7.55,0.92 11.25,7.24 l 3.9,13.4 c 0,0 1.5,2.23 -3.7,6.99 0,0 -3.9,5.01 -9.58,6.22 0,0.46 9.28,8.75 8.78,16.09" />
      </g>
      <g inkscape:groupmode="layer" id="l8" inkscape:label="Features" class="thin line">
         <path id="p6" d="m 27.51,37.44 c 0,0 6.75,17.77 33.45,17.44" />
         <path id="p7" d="m 14.72,32.4 c 0,0 -1.11,1.45 -1.18,8.75" />
         <path id="p8" d="m 31.17,23.13 c 0,0 18.54,-14.405 33.61,0" />
         <path id="p9" d="m 64.78,23.13 c 0,0 22.94,-8.17 38.12,5.33" />
         <path id="p10" d="m 64.78,23.13 c 0,0 5.59,3.93 8.69,7.64" />
         <path id="p11" d="m 60.76,13.92 c 0,0 3.84,2.02 4.02,9.21" />
         <path id="p12" d="m 78.16,53.62 c 0,0 -4.5,1.65 3.36,2.86 7.86,1.21 13.6,-0.67 13.6,-0.67" />
      </g>
      <g inkscape:groupmode="layer" id="l9" inkscape:label="Lips" class="lips coloured">
         <path id="p13" d="m 99.98,79.51 c 0,0 6.12,7.63 -7.91,7.95 -0.9,-0.39 -37.15,1.32 -51.69,-6.05 0,0 -19.15,-8.69 -18.29,-19.14 0,0 0,-5.39 5.07,-5.59 0,0 1.9,-1.12 6.38,5.13 0,0 7.17,6.38 12.16,7.57 0,0 3.03,0.11 5.85,2.29 0,0 33.5,10.46 49.45,1 0,0 8.6,-3.57 3.3,4.56" />
         <path id="p14" class="line" d="m 104.3,77.23 c 0,0 -4,3.33 -13.17,3.52 -9.14,0.21 -32.04,0.92 -37.62,-1.97 0,0 -6.99,-4.34 -10.47,-4.14 -0.46,-0.26 -3.16,1.91 -13.55,-9.21" />
      </g>
      <g inkscape:groupmode="layer" id="l10" inkscape:label="Eyes">
         <g inkscape:groupmode="layer" id="l11" inkscape:label="Sclera" class="sclera coloured">
            <path id="p15" d="m 72.61,48.25 c 0,0 0.1,6.32 13.68,6.32 0,0 10.13,0.99 12.69,-1.64 0,0 10.32,-6.71 9.42,-12.57 0,0 0.3,-10.18 -5.5,-11.9 0,0 -10.03,-5.53 -19.9,-4.53 0,0 -9.34,2.95 -9.53,6.84 l -0.99,3.35" />
            <path id="p16" d="m 72.48,34.12 c 0,0 5.58,5.65 0.13,14.13 M 72.48,34.12 c 0,0 -8.15,-12.11 -20.93,-11.98 h -8.6 c 0,0 -3.6,-1.02 -10.21,5.59 0,0 -4,5.07 -6.3,5.07 0,0 -3.61,-0.52 -3.05,1.6 0.57,2.11 2.96,2.2 2.96,2.2 0,0 1.4,0 2.16,3.57 0,0 3.22,5.18 9.95,6.99 6.75,1.82 7.4,2.66 7.4,2.66 0,0 2.88,1.95 12,1.95 0,0 12.41,0.54 14.75,-3.52" />
         </g>
         <g inkscape:groupmode="layer" id="l12" inkscape:label="Iris" class="iris coloured">
            <path id="p17" d="m 98.58,32.11 c 0,0 -7.12,-6.55 -11.63,1.12" />
            <path id="p18" d="m 86.95,33.23 c 0,0 -2.95,6.28 5.69,8.95 0,0 7.34,0.98 7.46,-3.03 0,0 1.4,-4.91 -1.52,-7.04" />
            <path id="p19" d="m 45.5,31.82 c 0,0 -0.52,-8.94 11.15,-4.52 0,0 4.38,1.58 4.56,6.89 0,0 -1.35,6.55 -7.53,5.81 0,-0.14 -8.88,-0.61 -8.18,-8.18 z" />
         </g>
         <g inkscape:groupmode="layer" id="l13" inkscape:label="Pupil" class="pupil coloured">
            <circle id="p20" cx="90.89" cy="33.13" r="1.295" />
            <circle id="p21" cx="96.16" cy="34.19" r="1.295" />
            <circle id="p22" cx="91.95" cy="37.35" r="1.295" />
            <circle id="p23" cx="50.91" cy="28.92" r="0.9787" />
            <circle id="p24" cx="50.91" cy="34.19" r="0.8736" />
            <circle id="p25" cx="56.16" cy="32.08" r="1.379" />
         </g>
      </g>
      <g inkscape:groupmode="layer" id="l17" inkscape:label="Left Hand" class="skin coloured">
         <path id="p26" d="m 8.697,94.19 c 0,0 5.493,2.18 5.463,4.37 0.1,0.15 6.88,11.74 22.24,6.24 0,0 2.79,-0.6 2.43,-8.32 0,0 0.33,-5.81 -3.25,-5.86 0,0 -7.89,-2.09 -9.07,-3.55 0,0 -1.85,0.3 -1.46,-9.97 0,0 0.39,-5.06 -2.21,-4.64 0,0 -3.42,1.81 -4.53,8.33 0,0 -2.73,8.71 -1.52,-9.68 0,0 -0.88,-4.45 -5.86,5.73 0,0 -1.813,5.12 -2.884,-6.33 0,0 -2.28,-5.3 -3.908,4.05 -0.28,0.61 0.373,3.63 -1.302,6.14 0,0 -2.0001,1.81 1.442,6.84 m 0,0 c 0,0 -0.14,3.07 4.419,6.65" />
      </g>
   </g>
</svg>
