<?xml version="1.0" encoding="UTF-8" standalone="no"?>
<svg xmlns="http://www.w3.org/2000/svg" xmlns:inkscape="http://www.inkscape.org/namespaces/inkscape" version="1.1" id="svg2" width="112" height="112" viewBox="0 0 112 112">
   <g inkscape:groupmode="layer" id="variant-hypers" inkscape:label="All">
      <g inkscape:groupmode="layer" id="layer3" inkscape:label="Shirt" class="shirt coloured">
         <path id="path1041" d="m 31.89,98.97 c 0,0 -14.93,-8.12 -15.87,-6.47 -0.12,0.35 -8.344,9.2 -12.104,19.9 H 103 c 0,0 -1.4,-6.7 -4.63,-9.5 -0.31,-0.5 -2.5,-3.9 -6.5,-3.35 0,0 -2.98,-2.36 2.78,-4.47 l -3.28,-5.13 -19.71,8.27 -19.85,0.27 c -0.47,0.23 -8.9,4.51 -19.92,0.48" />
      </g>
      <g inkscape:groupmode="layer" id="layer4" inkscape:label="Outline" class="skin coloured">
         <path id="path1127" d="m 91.19,83.57 c 0,0 5.26,-4.6 1.3,-7.23" />
         <path id="path1137-2" d="m 56.93,37.41 c 0,0 -7.17,4.65 -9.47,4.82 0,0 -0.96,0.1 -5.56,-1.83 0,0 -12.88,-5 -17.74,-0.85 0,0 -12.47,6.58 -15.74,12.51 0,0 -16.036,30.6 7.6,40.44 0.94,-1.65 15.87,6.47 15.87,6.47 11.02,4.03 19.45,-0.25 19.92,-0.48 l 19.85,-0.27 19.71,-8.27 0.67,-4.66 -0.85,-1.72 c 0,0 5.2,-4.6 1.3,-7.23 0,0 9.11,-7.22 1.2,-10.41 0,0 2.3,-3.79 2.6,-4.76 0,0 6.61,-6.73 1.4,-9.22 0,0 -3.6,-11.85 -16.43,-9.89 0,0 -0.9,0.45 -2.1,-2.82 0,0 -1.6,-4.1 -8.7,-4.4 0,0 -8.04,-1 -13.53,2.57" />
      </g>
      <g inkscape:groupmode="layer" id="layer8" inkscape:label="Eyes 2" class="sclera coloured">
         <path id="path1309-0" d="m 64.3,57.76 c 0,0 -2.66,6.48 -1.11,7.15" />
         <path id="path853" d="m 64.3,57.76 c 0,0 1.43,-5.05 -15.13,-4.11 -0.55,0.17 -7.75,-1.21 -12.63,4.99 -0.44,0.27 -7.69,7.2 -10.96,7.09 0,0.22 7.81,5.7 14.67,6.53 0,0 10.99,0 22.94,-7.35" />
      </g>
      <g inkscape:groupmode="layer" id="layer6" inkscape:label="Eyes" class="sclera coloured">
         <path id="path1309" d="m 70.39,53.72 c 0,0 -2.93,2.27 -3.71,2.1 0,0 -2.05,0.84 -2.38,1.94 0,0 -2.66,6.48 -1.11,7.15 0.22,0.33 2.27,3.38 13.35,1.22 0.72,-0.11 8.36,-3.16 12.9,-3.66 0.22,0.17 5.28,0.22 6.85,-1.3 0,0 6.71,-6.73 1.4,-9.22 0,0 -4.81,-5.32 -16.72,-4.16 -0.39,0.23 -5.43,0.84 -10.58,5.93" />
      </g>
      <g inkscape:groupmode="layer" id="layer7" inkscape:label="Lips" class="lips coloured">
         <path id="path1137-2-2-7" d="m 91.19,83.57 c 0,0 5.2,-4.6 1.3,-7.23 0,0 9.21,-7.22 1.2,-10.41 -1.13,0.16 -9.98,11.28 -33.32,9.64 -1.01,-0.1 -19.89,1.01 -24.35,-1.57 0,0 -12.29,-2.51 -14.8,1.57 0.1,0.54 -8.14,4.54 2.51,7.75 1.17,0.31 5.79,3.21 15.34,3.68 0,0 3.22,0.23 7.76,1.72 0.62,0.1 12.53,0.78 19.73,-0.78 0,0 6.58,-1.25 10.73,-1.02 0,0 7.83,-0.83 13.9,-3.35" />
      </g>
      <g inkscape:groupmode="layer" id="layer1" inkscape:label="Lips Inner" class="line">
         <path id="path920" d="m 28.97,79.17 c 1.18,0.55 6.42,0.31 12.22,2.66 0,0 12.61,1.33 27.09,-0.47 0.63,0.16 14.96,-2.27 18.95,-3.84 0.16,0.1 3.47,-2.75 5.26,-1.18" />
      </g>
      <g inkscape:groupmode="layer" id="layer9" inkscape:label="Iris" class="iris coloured">
         <path id="path923" d="m 41.47,71.93 c 0,0 -6.86,-13.24 2.77,-15.67 0.5,0.5 12.85,-5.48 12.4,11.57 0,0 -7.81,4.66 -15.17,4.1 z" />
         <path id="path927" d="m 79.96,50.11 c 0,0 11.93,-3.63 9.48,12.36 0,0 -7.21,1.38 -12.25,3.26 0,0 -8.53,-10.97 2.77,-15.62" />
      </g>
      <g inkscape:groupmode="layer" id="layer10" inkscape:label="Pupil" class="pupil coloured">
         <ellipse id="path966" cx="81.09" cy="62.14" rx="0.969" ry="1.011" />
         <ellipse id="path968" cx="79.14" cy="59.15" rx="0.789" ry="0.7337" />
         <ellipse id="path970" cx="84.83" cy="56.63" rx="1.467" ry="1.26" />
         <ellipse id="path972" cx="79.58" cy="53.79" rx="0.8998" ry="0.7752" />
         <ellipse id="path974" cx="50.8" cy="61.68" rx="1.661" ry="1.827" />
         <ellipse id="path976" cx="45.32" cy="64.85" rx="0.9136" ry="0.6783" />
         <ellipse id="path978" cx="46.61" cy="67.4" rx="0.7614" ry="0.8721" />
         <ellipse id="path980" cx="43.84" cy="59.75" rx="1.204" ry="1.218" />
      </g>
      <g inkscape:groupmode="layer" id="layer2" inkscape:label="Arms" class="skin coloured">
         <path id="path948" d="m 97.25,93.82 -2.6,1.26 -3.29,-5.13 0.68,-4.66 c 0,0 9.96,-4.21 9.26,-17.95 0,0 0.2,-4.76 2.2,-12.07 -0.3,-0.55 2.9,-13.07 -7.69,-17.94 -0.25,-0.25 -1.83,-3.27 -4.6,-1.25 0,0 -3.02,2.53 -5.13,1.24 -0.91,-0.55 -4.59,-1.25 0.1,-6.11 0,0 2.91,-1.92 -0.89,-5.29 0,0 -0.98,-2.35 2.16,-3.05 0,0 4.93,-1.29 5.13,2.31 0,0 3.09,-4.86 5.91,-2.35 -0.12,0.39 5.41,3.33 0.2,7.28 0,0 7.71,3.84 8.91,8.39 0,0 3.6,4.81 3.6,20.2 0.2,0.23 0,16.45 0,16.45 0,0 0.5,11.85 -13.95,18.67" />
         <path id="path1019" d="m 8.694,54.51 c 0,0 -4.23,-14.02 9.946,-24.59 0,0 6.34,4.69 7.72,2.15 0,0 2.77,-3.05 0.5,-8.26 0,0 -2.6,-1.6 -0.72,-4.2 0,0 2.44,-5.04 -0.28,-6.48 0,0 -3.49,-3.604 -6.53,1.82 0,0 -2.38,-6.587 -5.87,-2.82 0,0 -5.956,3.82 -0.36,9.91 0,0 -7.97,5.65 -9.027,11.99 0,0 -3.6814,7.95 -2.82,21.42 -0.156,0.47 -2.35,34.15 0.627,38.54 0.313,0.31 6.662,13.71 14.57,17.21 0,0 5.26,-3.4 3.04,-14 0.45,-0.1 -7.42,-4.27 -8.41,-17.34 0,0 -1.451,-22.14 -2.386,-25.35" />
      </g>
      <g inkscape:groupmode="layer" id="layer5" inkscape:label="Features" class="line">
         <path id="path1255" d="m 18.88,63.91 c 0.54,-0.23 5.79,-0.23 12.21,-7.13 1.26,-0.31 4.15,-5.24 16.45,-6.11" />
         <path id="path1257" d="m 19.27,51.07 c 0,0 11.04,-13.63 28.98,-4.23" />
         <path id="path1259" d="m 53.65,47.15 c 0.31,0.1 10.73,-7.36 23.81,-4.39" />
         <path id="path1263" d="M 77.46,42.76 C 76.6,43 65.63,46.29 60.78,51.38" />
      </g>
   </g>
</svg>
