<?xml version="1.0" encoding="UTF-8" standalone="no"?>
<svg xmlns="http://www.w3.org/2000/svg" xmlns:inkscape="http://www.inkscape.org/namespaces/inkscape" version="1.1" id="svg228" width="112" height="112" viewBox="0 0 112 112">
   <g inkscape:groupmode="layer" id="variant-pepelaugh" inkscape:label="All">
      <g inkscape:groupmode="layer" id="l0" inkscape:label="Outline" class="skin coloured">
         <path id="p1" d="M 5.844,52.68 C 14.05,30.89 20.15,32.51 20.15,32.51 c 0,0 13.45,-40.577 44.07,-17.93 0,0 23.87,-17.537 29.68,7.85 0,0 37,15.43 1.6,35.97 0,0 6.2,3.87 5.8,5.98 9.9,1.69 0.2,17.42 -4.6,20.22 -7.6,11.8 -22.9,15.9 -22.9,15.9 l -6.1,0.4 C 21.27,103.1 6.964,89.8 6.964,89.8 -2.206,74.42 5.844,52.62 5.844,52.57" />
      </g>
      <g inkscape:groupmode="layer" id="l1" inkscape:label="Features" class="line">
         <path id="p2" d="m 64.22,14.58 c 0,0 3.98,6.6 2.74,10.21" />
         <path id="p3" d="m 20.15,32.51 c 0,0 -1.49,6.1 -1.24,9.34" />
         <path id="p4" d="m 37.2,69.36 c 0,0 -2.23,6.72 10.09,16.14" />
         <path id="p5" d="m 28.24,84 c 0,0 -0.12,4.7 6.98,5.7" />
         <path id="p6" d="m 54.88,61.15 c 0,0 11.83,-5.24 13.45,-6.6" />
         <path id="p7" d="m 64.34,59.28 c 0,0 6.73,-2.75 6.35,-5.23" />
         <path id="p8" d="m 44.05,49.69 c 0,0 28.01,8.09 32.12,-2.36" />
         <path id="p9" d="m 78.04,49.81 c 0,0 17.66,3.62 21.26,-0.62" />
         <path id="p10" d="m 36.08,38.99 c 0,0 -4.73,0.37 -1.24,3.23" />
         <path id="p11" d="m 37.95,40.85 c 0,0 0.37,0.87 2,1.37" />
         <path id="p12" d="m 38.95,43.59 -1.12,1.49" />
         <path id="p13" d="m 49.78,46.95 7.96,-0.37" />
         <path id="p14" d="m 59.61,45.83 5.11,-0.12" />
         <path id="p15" d="m 58.86,48.45 c 0,0 5.98,1.74 10.59,-1.87" />
         <path id="p16" d="m 92.2,43.84 4,0.12" />
         <path id="p17" d="m 81.39,27.66 c 0,0 9.21,-3.74 13.81,-0.87" />
         <path id="p18" d="m 49.78,25.67 c 2.24,0 9.58,0.12 9.58,0.12" />
         <path id="p19" d="m 45.79,52.3 c 0,0 14.32,3.24 17.19,2.12" />
         <path id="p20" d="m 76.04,56.41 c 0,0 -1.28,2.49 7.84,1.74 C 93,57.41 95.5,58.4 95.5,58.4" />
      </g>
      <g inkscape:groupmode="layer" id="l2" inkscape:label="Neck" class="skin coloured">
         <path id="p21" d="m 5.094,93 c 0,0 3.11,-1.3 7.706,3.7 4.6,4.9 20.79,8.8 27.88,8.8 7.1,0 21.04,0.7 26.27,-0.5 5.23,-1.3 6.87,-4.4 6.87,-4.4 l -6.1,0.4 C 21.27,103.1 6.964,89.8 6.964,89.8 l -0.13,2.8" />
      </g>
      <g inkscape:groupmode="layer" id="l3" inkscape:label="Eyelids" class="line">
         <path id="p22" d="m 35.84,23.8 c 0,0 18.42,-13.45 34.11,3.98" />
         <path id="p23" d="m 66.96,24.79 c 0,0 15.78,-5.72 29.04,-0.74" />
         <path id="p24" d="m 106.8,32.02 c 0,0 -15.6,-7.47 -31.38,0.49" />
         <path id="p25" d="m 108.3,35.12 c 0,0 -16.6,-7.71 -32.13,0.13" />
         <path id="p26" d="m 73.3,34.26 c 0,0 -11.82,-8.97 -28.38,2.48 0,0 -1.24,1.62 -5.47,1.75" />
         <path id="p27" d="m 71.44,29.15 c 0,0 -12.58,-3.23 -23.65,2.24 0,0 -4.86,3.61 -6.72,3.86 -0.63,0.12 -2.75,0.12 -3.49,1.12" />
      </g>
      <g inkscape:groupmode="layer" id="l4" inkscape:label="Lips" class="lips coloured">
         <path id="p28" d="m 101.3,64.38 c 11.2,3.42 -2.9,18.92 -2.9,18.92 0,0 -7.8,7.4 -38.91,4.4 0,0 -8.84,-1.5 -16.31,-12.74 -0.12,-0.37 -5.73,-11.33 16.56,-10.33" />
         <path id="p29" d="m 59.74,64.63 c 0,0 11.33,-1.5 41.56,-0.25" />
      </g>
      <g inkscape:groupmode="layer" id="l5" inkscape:label="Lips Inner" style="display:inline;fill:white">
         <path id="p30" d="m 88.4,83.2 c 0,0 5.3,-1.4 10.5,-10.48 0,0 5.4,-6.1 -3.8,-5.98 -9.22,0.13 -32.62,-0.37 -41.59,1.75 m 0,0 c 0,0 -14.06,2.61 1.25,12.34 0,0 2.86,4.07 14.07,4.17 0,0 11.2,0.9 19.57,-1.8" />
      </g>
      <g inkscape:groupmode="layer" id="l6" inkscape:label="Teeth" class="line">
         <path id="p31" d="m 53.51,68.49 c 0,0 2.62,10.2 1.25,12.34" />
         <path id="p32" d="m 60.23,67.62 c 0,0 2.87,10.22 0.5,16.38" />
         <path id="p33" d="m 66.58,67.24 c 0,0 3.74,10.6 2.25,17.76" />
         <path id="p34" d="m 72.93,66.74 c 0,0 6.32,9.22 1.25,18.16" />
         <path id="p35" d="m 81.24,66.99 c 0,0 6.28,10.46 0.79,17.21" />
         <path id="p36" d="m 89.6,66.74 c 0,0 4.8,11.45 -1.2,16.46" />
         <path id="p37" d="m 96.9,66.62 c 0,0 0.5,4.23 0.2,8.97" />
         <path id="p38" d="m 50.65,77.57 c 0,0 32.23,-5.47 45.45,-0.74" />
      </g>
      <g inkscape:groupmode="layer" id="l7" inkscape:label="Sclera" class="sclera coloured">
         <path id="p39" d="m 41.57,42.72 c 0,0 14.19,-6.23 24.26,-4.36 10.09,1.87 10.34,4.61 0.13,4.61 -10.2,0 -25.52,0.99 -24.39,-0.25 z" />
         <path id="p40" d="m 82.67,39.86 c 0,0 6.43,-3.12 17.73,-2.87 11.3,0.25 12,4.24 -5.3,4.24 -17.28,0 -10.72,-0.5 -12.43,-1.37 z" />
      </g>
      <g inkscape:groupmode="layer" id="l8" inkscape:label="Iris" class="iris coloured">
         <ellipse id="p41" cx="101.3" cy="38.92" rx="0.9957" ry="1.929" />
         <ellipse id="p42" cx="63.85" cy="40.61" rx="0.9957" ry="1.929" />
      </g>
      <g inkscape:groupmode="layer" id="l9" inkscape:label="Shirt" class="shirt coloured">
         <path id="p43" d="m 87.87,112.4 0.22,18.4 -96.832,-1.2 -6.868,-37 20.704,0.4 m 82.776,19.4 0.14,0.6 M 5.094,93 c 0,0 3.11,-1.3 7.716,3.7 4.6,4.9 20.79,8.8 27.88,8.8 7.1,0 21.04,0.7 26.27,-0.5 5.22,-1.3 6.84,-4.4 6.84,-4.4 0,0 13.43,9 14.07,11.8" />
      </g>
   </g>
</svg>
