<svg xmlns="http://www.w3.org/2000/svg" version="1.1" id="svg2" width="112" height="112" viewBox="0 0 112 112">
    <g id="variant-peepowtf">
        <g id="layer1" class="skin coloured very-thick">
            <path id="path845" d="m 108.1,94.03 c 0,0 -2.7,-38.32 -11.18,-30.12 0,0 -0.89,-10.41 -10.75,-15.28 0,0 -3.43,-12.63 -32.78,-5.1 0,0 -3.44,0.44 -8.31,-3.1 0,0 -12.96,-4.54 -19.94,2.1 0,0 -32.672,2.11 -16.5,24.15 0,0 3.32,1.11 0.996,4.87 0,0 -3.433,6.76 3.104,15.95 0,0 1.24,1.77 1.44,4.87 65.91,19.23 93.42,1.66 93.92,1.66 z"/>
        </g>
        <g id="layer2" class="lips coloured">
            <path id="path923" d="m 49.62,87.61 c 0,0 -6.09,-3.1 -10.19,-3.98 0,0 -5.48,-2.44 -10.58,-1.83 -0.27,0 -5.42,-1.05 -14.67,1.99 0,0 -7.368,1.22 -7.756,-1.05 0,0 -1.827,-2.93 2.271,-3.82 0,0 -3.877,-0.39 -2.935,-3.66 0.941,-3.26 2.16,-3.76 7.42,-3.37 0,0 6.92,1.05 11.91,0.72 0,0 7.59,-0.95 10.69,0 0,0 11.13,6.01 24.53,7.06 0,0 8.47,-0.55 6.76,3.71 -0.28,0.67 -2,4.88 -5.98,5.1 0,0 -10.47,1.38 -11.47,-0.89 z"/>
            <path style="fill:none" id="path929-5" d="m 8.7,78.92 c 0,0 11.74,-6.59 28.35,-1.11 0.39,0.1 9.8,2.49 14.46,4.6 0.55,0.22 1.6,1.94 9.85,1.05"/>
        </g>
        <g id="layer4" class="sclera coloured">
            <path id="path911" d="m 26.24,67.51 c -0.63,-0.1 -8.77,-0.23 -14.57,-2.27 -0.31,-0.23 -5.013,0.79 -6.422,-4.38 0,0 -3.995,-11.6 5.722,-11.05 0.31,0.24 19.96,-3.34 26.19,10 0,0 16.18,-14.54 32.55,4.02 0,0 3.36,3.37 5.4,3.29 0,0 2.19,0.78 -0.78,2.19 -0.47,0.16 -5.72,0.79 -6.58,3.06 0,0 -3.13,1.96 -9.95,0.47 0,0 -14.49,-2.04 -17.93,-5.56 0,0 -0.39,-5 -2.35,-2.59 0,0 -0.71,5.41 -11.28,2.82 z"/>
        </g>
        <g id="layer6" class="iris coloured">
            <path id="path939-6" d="m 13.47,50.09 c 0,0 -7.28,5.98 -1.8,15.15 0,0 5.38,1.85 12.04,2.01 0,0 7.03,-6.12 1.04,-16.38 0,0 -6.7,-2.39 -11.28,-0.78 z"/>
            <path id="path935-7" d="m 46.13,70.33 c 0,0 7.55,2.3 11.67,2.51 0,0 6.61,-2.95 2.29,-16.18 0,0 -6.31,-3.72 -10.25,-0.61 0,0 -8.64,10.96 -3.71,14.28 z"/>
        </g>
        <g id="layer5" class="pupil coloured">
            <ellipse id="path983" cx="49.72" cy="61.95" rx=".813" ry="1.782"/>
            <ellipse id="path985" cx="56.32" cy="60.36" rx="1.4" ry="1.302"/>
            <ellipse id="path987" cx="55.33" cy="66.03" rx="1.821" ry=".93"/>
            <ellipse id="path993" cx="14.97" cy="57.55" rx="1.459" ry="2.193"/>
            <ellipse id="path995" cx="-58.38" cy="-5.344" rx="1.474" ry="1.287" transform="matrix(-0.4496,-0.8932,0.8806,-0.4739,0,0)"/>
            <ellipse id="path997" cx="55.27" cy="37.79" rx="1.714" ry="2.084" transform="matrix(0.8199,0.5725,-0.6221,0.7829,0,0)"/>
        </g>
        <g id="layer7" class="line coloured">
            <path id="path895" d="m 69.12,91.6 c 0,0 6.64,-1.99 4.65,-10.85"/>
            <path class="thick" id="path897" d="M 81.52,52.5 C 80.97,52.28 77.31,40.98 47.19,49.84 46.52,49.62 37,40.54 17.39,44.97"/>
        </g>
        <g id="layer9" class="eyebrow coloured">
            <path id="path900" d="m 72.13,53.1 c 0,0 -0.54,1.41 -3.36,0.86 0,0 -5.87,-4 -29.84,3.29 0,0 27.57,-22.16 33.2,-4.15 z"/>
            <path id="path906" d="m 37.16,59.81 c 0,0 1.5,-1.66 -2.05,-6.98 0,-0.33 -12.35,-14.56 -18.94,-14.67 0,0 -9.026,-1 -8.583,4.82 0,0 0.222,0.94 8.973,3.26 0,0 18.94,7.59 20.6,13.57 z"/>
        </g>
        <g id="layer8" class="shirt coloured thick">
            <path id="path845-3" d="m 4.436,112 c 0.03,-4 4.413,-9.1 4.413,-9.1 5.071,-6.51 5.331,-10.53 5.331,-10.53 65.92,19.23 93.42,1.66 93.92,1.66 0,0 3.9,3.92 3.9,17.97"/>
        </g>
    </g>
</svg>
